<svg width="48" height="48" viewBox="0 0 48 48" fill="none" xmlns="http://www.w3.org/2000/svg">
<path d="M35.4461 43.8465C36.8233 43.8465 37.9384 42.7305 37.9384 41.3541C37.9384 39.943 37.9384 13.5617 37.9384 11.2618C37.9384 9.88553 36.8233 8.76953 35.4461 8.76953H12.7384C11.3621 8.76953 10.2461 9.88553 10.2461 11.2618V41.3541C10.2461 42.7305 11.3621 43.8465 12.7384 43.8465H35.4461Z" fill="#757D8C"/>
<path d="M41.7923 20.3086H37.9385H34.2462H31.5923C30.7135 20.3086 30 21.0212 30 21.9009V36.7163C30 37.596 30.7135 38.3086 31.5923 38.3086H34.2462H37.9385H41.7923C42.672 38.3086 43.3846 37.596 43.3846 36.7163V21.9009C43.3846 21.0212 42.672 20.3086 41.7923 20.3086Z" fill="#3F4751"/>
<path d="M42.462 12C43.7369 12 44.7697 13.0329 44.7697 14.3077C44.7697 15.5825 43.7369 16.6154 42.462 16.6154C41.1881 16.6154 40.1543 15.5825 40.1543 14.3077C40.1543 13.0329 41.1881 12 42.462 12Z" fill="#FD6814"/>
<path d="M5.07662 34.6162C6.09662 34.6162 6.92278 35.4424 6.92278 36.4624C6.92278 37.4824 6.09662 38.3085 5.07662 38.3085C4.05755 38.3085 3.23047 37.4824 3.23047 36.4624C3.23047 35.4424 4.05755 34.6162 5.07662 34.6162Z" fill="#FD6814"/>
<path d="M35.5391 26.7695H37.8468V29.0772H35.5391V26.7695Z" fill="#757D8C"/>
<path d="M35.5391 30.4619H37.8468V32.7696H35.5391V30.4619Z" fill="#757D8C"/>
<path d="M35.5391 34.1543H37.8468V36.462H35.5391V34.1543Z" fill="#757D8C"/>
<path d="M31.8457 34.1543H34.1534V36.462H31.8457V34.1543Z" fill="#757D8C"/>
<path d="M31.8457 30.4619H34.1534V32.7696H31.8457V30.4619Z" fill="#757D8C"/>
<path d="M31.8457 26.7695H34.1534V29.0772H31.8457V26.7695Z" fill="#757D8C"/>
<path d="M39.2305 26.7695H41.5382V29.0772H39.2305V26.7695Z" fill="#FD6814"/>
<path d="M39.2305 30.4619H41.5382V36.4619H39.2305V30.4619Z" fill="#07CC66"/>
<path d="M39.6923 22.1543L37.8462 24.9235H36L37.8462 22.1543H39.6923Z" fill="#E8EBF5"/>
<path d="M41.538 22.1543V24.9235H37.8457L39.6919 22.1543H41.538Z" fill="white"/>
<path d="M37.8457 22.1543L35.9995 24.9235H31.8457V22.1543H37.8457Z" fill="white"/>
<path d="M34.2452 38.3081V43.8466H13.9375V16.1543H34.2452V20.3081H31.5913C30.7126 20.3081 29.999 21.0208 29.999 21.9005V36.7158C29.999 37.5955 30.7126 38.3081 31.5913 38.3081H34.2452Z" fill="#ECEBED"/>
<path d="M31.431 8.77799C31.4606 8.92476 31.4763 9.07614 31.4763 9.23122C31.4763 10.506 30.4434 11.5389 29.1686 11.5389H19.0147C18.3778 11.5389 17.8009 11.2805 17.3836 10.8632C16.9655 10.446 16.707 9.86814 16.707 9.23122C16.707 9.07614 16.7227 8.92476 16.7523 8.77799C16.9618 7.72014 17.896 6.92353 19.0147 6.92353H20.5156C20.9255 5.33122 22.372 4.1543 24.0916 4.1543C25.8123 4.1543 27.2578 5.33122 27.6676 6.92353H29.1686C29.8064 6.92353 30.3824 7.18199 30.8006 7.59922C31.1163 7.91491 31.3415 8.32291 31.431 8.77799Z" fill="#313A52"/>
<path d="M40.8447 42C41.2277 42 41.537 42.3102 41.537 42.6923C41.537 43.0745 41.2277 43.3846 40.8447 43.3846C40.4625 43.3846 40.1523 43.0745 40.1523 42.6923C40.1523 42.3102 40.4625 42 40.8447 42Z" fill="#4A78FF"/>
<path d="M38.538 4.1543C38.9211 4.1543 39.2303 4.46445 39.2303 4.8466C39.2303 5.22876 38.9211 5.53891 38.538 5.53891C38.1559 5.53891 37.8457 5.22876 37.8457 4.8466C37.8457 4.46445 38.1559 4.1543 38.538 4.1543Z" fill="#4A78FF"/>
<path d="M14.0751 4.61621C14.4582 4.61621 14.7674 4.92636 14.7674 5.30852C14.7674 5.69067 14.4582 6.00083 14.0751 6.00083C13.693 6.00083 13.3828 5.69067 13.3828 5.30852C13.3828 4.92636 13.693 4.61621 14.0751 4.61621Z" fill="#4A78FF"/>
<path d="M4.84465 15.2314C5.22773 15.2314 5.53696 15.5416 5.53696 15.9238C5.53696 16.3059 5.22773 16.6161 4.84465 16.6161C4.4625 16.6161 4.15234 16.3059 4.15234 15.9238C4.15234 15.5416 4.4625 15.2314 4.84465 15.2314Z" fill="#4A78FF"/>
<path d="M4.38371 27.6924C4.76679 27.6924 5.07602 28.0025 5.07602 28.3847C5.07602 28.7668 4.76679 29.077 4.38371 29.077C4.00156 29.077 3.69141 28.7668 3.69141 28.3847C3.69141 28.0025 4.00156 27.6924 4.38371 27.6924Z" fill="#4A78FF"/>
<path d="M25.8447 34.6155H16.6139C16.359 34.6155 16.1523 34.4089 16.1523 34.1539C16.1523 33.899 16.359 33.6924 16.6139 33.6924H25.8447C26.0996 33.6924 26.3062 33.899 26.3062 34.1539C26.3062 34.4089 26.0996 34.6155 25.8447 34.6155Z" fill="#4A78FF"/>
<path d="M25.8447 33.2317H16.6139C16.359 33.2317 16.1523 33.0251 16.1523 32.7701C16.1523 32.5152 16.359 32.3086 16.6139 32.3086H25.8447C26.0996 32.3086 26.3062 32.5152 26.3062 32.7701C26.3062 33.0251 26.0996 33.2317 25.8447 33.2317Z" fill="#4A78FF"/>
<path d="M19.3831 31.8469H16.6139C16.359 31.8469 16.1523 31.6403 16.1523 31.3854C16.1523 31.1304 16.359 30.9238 16.6139 30.9238H19.3831C19.6381 30.9238 19.8447 31.1304 19.8447 31.3854C19.8447 31.6403 19.6381 31.8469 19.3831 31.8469Z" fill="#4A78FF"/>
<path d="M25.8447 39.6926H16.6139C16.359 39.6926 16.1523 39.486 16.1523 39.2311C16.1523 38.9761 16.359 38.7695 16.6139 38.7695H25.8447C26.0996 38.7695 26.3062 38.9761 26.3062 39.2311C26.3062 39.486 26.0996 39.6926 25.8447 39.6926Z" fill="#4A78FF"/>
<path d="M25.8447 38.3078H16.6139C16.359 38.3078 16.1523 38.1013 16.1523 37.8463C16.1523 37.5914 16.359 37.3848 16.6139 37.3848H25.8447C26.0996 37.3848 26.3062 37.5914 26.3062 37.8463C26.3062 38.1013 26.0996 38.3078 25.8447 38.3078Z" fill="#4A78FF"/>
<path d="M19.3831 36.9231H16.6139C16.359 36.9231 16.1523 36.7165 16.1523 36.4615C16.1523 36.2066 16.359 36 16.6139 36H19.3831C19.6381 36 19.8447 36.2066 19.8447 36.4615C19.8447 36.7165 19.6381 36.9231 19.3831 36.9231Z" fill="#4A78FF"/>
<path d="M25.8447 29.5393H16.6139C16.359 29.5393 16.1523 29.3327 16.1523 29.0777C16.1523 28.8228 16.359 28.6162 16.6139 28.6162H25.8447C26.0996 28.6162 26.3062 28.8228 26.3062 29.0777C26.3062 29.3327 26.0996 29.5393 25.8447 29.5393Z" fill="#4A78FF"/>
<path d="M25.8447 28.1545H16.6139C16.359 28.1545 16.1523 27.9479 16.1523 27.693C16.1523 27.438 16.359 27.2314 16.6139 27.2314H25.8447C26.0996 27.2314 26.3062 27.438 26.3062 27.693C26.3062 27.9479 26.0996 28.1545 25.8447 28.1545Z" fill="#4A78FF"/>
<path d="M19.3831 26.7698H16.6139C16.359 26.7698 16.1523 26.5632 16.1523 26.3082C16.1523 26.0533 16.359 25.8467 16.6139 25.8467H19.3831C19.6381 25.8467 19.8447 26.0533 19.8447 26.3082C19.8447 26.5632 19.6381 26.7698 19.3831 26.7698Z" fill="#4A78FF"/>
<path d="M25.8447 24.4621H16.6139C16.359 24.4621 16.1523 24.2556 16.1523 24.0006C16.1523 23.7456 16.359 23.5391 16.6139 23.5391H25.8447C26.0996 23.5391 26.3062 23.7456 26.3062 24.0006C26.3062 24.2556 26.0996 24.4621 25.8447 24.4621Z" fill="#4A78FF"/>
<path d="M25.8447 23.0774H16.6139C16.359 23.0774 16.1523 22.8707 16.1523 22.6158C16.1523 22.361 16.359 22.1543 16.6139 22.1543H25.8447C26.0996 22.1543 26.3062 22.361 26.3062 22.6158C26.3062 22.8707 26.0996 23.0774 25.8447 23.0774Z" fill="#4A78FF"/>
<path d="M19.3831 21.6926H16.6139C16.359 21.6926 16.1523 21.4859 16.1523 21.2311C16.1523 20.9762 16.359 20.7695 16.6139 20.7695H19.3831C19.6381 20.7695 19.8447 20.9762 19.8447 21.2311C19.8447 21.4859 19.6381 21.6926 19.3831 21.6926Z" fill="#4A78FF"/>
</svg>
