<svg width="48" height="48" viewBox="0 0 48 48" fill="none" xmlns="http://www.w3.org/2000/svg">
<path d="M30.0925 25.8458C30.0392 25.8458 29.985 25.8365 29.9322 25.8169C29.6931 25.7284 29.5712 25.4629 29.6597 25.2239L34.2751 12.7623C34.3636 12.5233 34.6295 12.4013 34.8682 12.4897C35.1073 12.5783 35.2293 12.8438 35.1408 13.0828L30.5254 25.5444C30.4563 25.7307 30.2799 25.8458 30.0925 25.8458Z" fill="#33383F"/>
<path d="M39.3232 25.8467C39.1356 25.8467 38.9593 25.7316 38.8903 25.5453L34.275 13.0838C34.1864 12.8448 34.3084 12.5792 34.5474 12.4907C34.7864 12.4024 35.0521 12.5242 35.1406 12.7633L39.756 25.2248C39.8445 25.4638 39.7225 25.7294 39.4834 25.8179C39.4305 25.8374 39.3763 25.8467 39.3232 25.8467Z" fill="#33383F"/>
<path d="M34.7076 25.8462C34.4528 25.8462 34.2461 25.6396 34.2461 25.3846V18.4615C34.2461 18.2067 34.4528 18 34.7076 18C34.9626 18 35.1692 18.2067 35.1692 18.4615V25.3846C35.1692 25.6396 34.9626 25.8462 34.7076 25.8462Z" fill="#33383F"/>
<path d="M40.7094 13.8459H39.3248C39.07 13.8459 38.8633 13.6393 38.8633 13.3844C38.8633 13.1295 39.07 12.9229 39.3248 12.9229H40.7094C40.9644 12.9229 41.171 13.1295 41.171 13.3844C41.171 13.6393 40.9644 13.8459 40.7094 13.8459Z" fill="#33383F"/>
<path d="M39.3247 11.9998V13.846H34.7093H25.4785V10.6152L39.3247 11.9998Z" fill="#3F4751"/>
<path d="M39.3236 25.0156H41.6313C41.6313 28.839 38.5325 31.9387 34.7082 31.9387C30.8848 31.9387 27.7852 28.839 27.7852 25.0156H30.0928H34.7082H39.3236Z" fill="#757D8C"/>
<path d="M41.8622 18.4619C42.2453 18.4619 42.5545 18.7721 42.5545 19.1542C42.5545 19.5364 42.2453 19.8465 41.8622 19.8465C41.4801 19.8465 41.1699 19.5364 41.1699 19.1542C41.1699 18.7721 41.4801 18.4619 41.8622 18.4619Z" fill="#4A78FF"/>
<path d="M17.8173 25.8467C17.6297 25.8467 17.4534 25.7316 17.3845 25.5453L12.7691 13.0838C12.6806 12.8448 12.8025 12.5792 13.0416 12.4907C13.2807 12.4024 13.5462 12.5242 13.6348 12.7633L18.2501 25.2248C18.3387 25.4638 18.2166 25.7294 17.9776 25.8179C17.9247 25.8374 17.8705 25.8467 17.8173 25.8467Z" fill="#33383F"/>
<path d="M8.58465 25.8458C8.53138 25.8458 8.4772 25.8365 8.4244 25.8169C8.18532 25.7284 8.06338 25.4629 8.15191 25.2239L12.7673 12.7623C12.8558 12.5233 13.1216 12.4013 13.3604 12.4897C13.5994 12.5783 13.7215 12.8438 13.633 13.0828L9.01757 25.5444C8.94852 25.7307 8.77212 25.8458 8.58465 25.8458Z" fill="#33383F"/>
<path d="M13.2018 25.8462C12.9469 25.8462 12.7402 25.6396 12.7402 25.3846V18.4615C12.7402 18.2067 12.9469 18 13.2018 18C13.4567 18 13.6633 18.2067 13.6633 18.4615V25.3846C13.6633 25.6396 13.4567 25.8462 13.2018 25.8462Z" fill="#33383F"/>
<path d="M8.58639 13.8459H7.20177C6.94691 13.8459 6.74023 13.6393 6.74023 13.3844C6.74023 13.1295 6.94691 12.9229 7.20177 12.9229H8.58639C8.84134 12.9229 9.04793 13.1295 9.04793 13.3844C9.04793 13.6393 8.84134 13.8459 8.58639 13.8459Z" fill="#33383F"/>
<path d="M22.4321 10.6152V13.846H13.2013H8.58594V11.9998L22.4321 10.6152Z" fill="#3F4751"/>
<path d="M17.8158 25.0156H20.1235C20.1235 28.839 17.0238 31.9387 13.2004 31.9387C9.37704 31.9387 6.27734 28.839 6.27734 25.0156H8.58504H13.2004H17.8158Z" fill="#757D8C"/>
<path d="M5.12395 18.4619C5.50703 18.4619 5.81626 18.7721 5.81626 19.1542C5.81626 19.5364 5.50703 19.8465 5.12395 19.8465C4.74179 19.8465 4.43164 19.5364 4.43164 19.1542C4.43164 18.7721 4.74179 18.4619 5.12395 18.4619Z" fill="#4A78FF"/>
<path d="M23.2617 6H24.6463V8.30769H23.2617V6Z" fill="#33383F"/>
<path d="M25.5706 13.2806V37.8463H22.3398V13.2806V9.84135V7.38477H23.2629H24.6475H25.5706V9.84135V13.2806Z" fill="#757D8C"/>
<path d="M41.0326 3.69238C42.4348 3.69238 43.5711 4.82869 43.5711 6.23084C43.5711 7.633 42.4348 8.76931 41.0326 8.76931C39.6314 8.76931 38.4941 7.633 38.4941 6.23084C38.4941 4.82869 39.6314 3.69238 41.0326 3.69238Z" fill="#FFD400"/>
<path d="M7.10787 36.4619C8.12787 36.4619 8.95403 37.2881 8.95403 38.3081C8.95403 39.3281 8.12787 40.1542 7.10787 40.1542C6.0888 40.1542 5.26172 39.3281 5.26172 38.3081C5.26172 37.2881 6.0888 36.4619 7.10787 36.4619Z" fill="#FFD400"/>
<path d="M13.5703 43.8462V39.6924H17.7242H30.1857H34.3395V43.8462H13.5703Z" fill="#AD330E"/>
<path d="M30.1861 36.9229V39.6921H17.7246V36.9229H22.34H25.5708H30.1861Z" fill="#FD6814"/>
<path d="M42.415 34.1543C42.798 34.1543 43.1073 34.4645 43.1073 34.8466C43.1073 35.2288 42.798 35.5389 42.415 35.5389C42.0328 35.5389 41.7227 35.2288 41.7227 34.8466C41.7227 34.4645 42.0328 34.1543 42.415 34.1543Z" fill="#4A78FF"/>
<path d="M38.7236 38.7695C39.1066 38.7695 39.4159 39.0797 39.4159 39.4618C39.4159 39.844 39.1066 40.1541 38.7236 40.1541C38.3414 40.1541 38.0312 39.844 38.0312 39.4618C38.0312 39.0797 38.3414 38.7695 38.7236 38.7695Z" fill="#4A78FF"/>
<path d="M31.7997 5.53906C32.1828 5.53906 32.492 5.84922 32.492 6.23137C32.492 6.61352 32.1828 6.92368 31.7997 6.92368C31.4176 6.92368 31.1074 6.61352 31.1074 6.23137C31.1074 5.84922 31.4176 5.53906 31.7997 5.53906Z" fill="#4A78FF"/>
<path d="M16.5693 4.1543C16.9523 4.1543 17.2616 4.46445 17.2616 4.8466C17.2616 5.22876 16.9523 5.53891 16.5693 5.53891C16.1871 5.53891 15.877 5.22876 15.877 4.8466C15.877 4.46445 16.1871 4.1543 16.5693 4.1543Z" fill="#4A78FF"/>
<path d="M11.4931 36.4619C11.8762 36.4619 12.1854 36.7721 12.1854 37.1542C12.1854 37.5364 11.8762 37.8465 11.4931 37.8465C11.1109 37.8465 10.8008 37.5364 10.8008 37.1542C10.8008 36.7721 11.1109 36.4619 11.4931 36.4619Z" fill="#4A78FF"/>
<path d="M7.33879 7.38477C7.72187 7.38477 8.0311 7.69492 8.0311 8.07707C8.0311 8.45923 7.72187 8.76938 7.33879 8.76938C6.95664 8.76938 6.64648 8.45923 6.64648 8.07707C6.64648 7.69492 6.95664 7.38477 7.33879 7.38477Z" fill="#4A78FF"/>
<path d="M35.7246 44.3078H12.1861C11.9313 44.3078 11.7246 44.1013 11.7246 43.8463C11.7246 43.5914 11.9313 43.3848 12.1861 43.3848H35.7246C35.9796 43.3848 36.1861 43.5914 36.1861 43.8463C36.1861 44.1013 35.9796 44.3078 35.7246 44.3078Z" fill="#33383F"/>
</svg>
