<svg width="48" height="48" viewBox="0 0 48 48" fill="none" xmlns="http://www.w3.org/2000/svg">
<path d="M33.8774 40.9847V44.677H8.03125V7.75391H11.7236V40.9847H33.8774Z" fill="#E8EBF5"/>
<path d="M33.6929 8.8617V3.32324H11.5391V7.93863V41.1694H33.6929H39.2314V8.8617H33.6929Z" fill="white"/>
<path d="M42.9223 13.9385C43.9423 13.9385 44.7685 14.7646 44.7685 15.7846C44.7685 16.8046 43.9423 17.6308 42.9223 17.6308C41.9032 17.6308 41.0762 16.8046 41.0762 15.7846C41.0762 14.7646 41.9032 13.9385 42.9223 13.9385Z" fill="#FD6814"/>
<path d="M4.61508 30.5537C5.38031 30.5537 5.9997 31.174 5.9997 31.9383C5.9997 32.7026 5.38031 33.3229 4.61508 33.3229C3.85078 33.3229 3.23047 32.7026 3.23047 31.9383C3.23047 31.174 3.85078 30.5537 4.61508 30.5537Z" fill="#FD6814"/>
<path d="M34.7821 38.862C35.3877 38.862 35.8786 38.3711 35.8786 37.7655C35.8786 37.1599 35.3877 36.6689 34.7821 36.6689C34.1765 36.6689 33.6855 37.1599 33.6855 37.7655C33.6855 38.3711 34.1765 38.862 34.7821 38.862Z" fill="#00ACC1"/>
<path d="M36.6026 30.5156C36.8167 30.7297 36.9237 31.0103 36.9237 31.291C36.9237 31.5725 36.8167 31.8531 36.6026 32.0672L31.0243 37.6454C30.596 38.0737 29.9019 38.0737 29.4736 37.6454C29.0453 37.217 29.0453 36.523 29.4736 36.0946L35.0517 30.5156C35.48 30.0873 36.1742 30.0873 36.6026 30.5156Z" fill="#26C6DA"/>
<path d="M30.5165 29.7188C30.9449 29.2904 31.639 29.2904 32.0674 29.7188C32.4957 30.1471 32.4957 30.8412 32.0674 31.2695C31.639 31.6988 30.9449 31.6988 30.5165 31.2695C30.0882 30.8412 30.0882 30.1471 30.5165 29.7188Z" fill="#00ACC1"/>
<path d="M30.0005 12.5537V13.4768H27.2312V14.8614H24.462V15.7845H21.6928V17.1691H18.9235V18.5537H16.1543V23.1691H18.9235H21.6928H24.462H27.2312H30.0005H32.7697V12.5537H30.0005Z" fill="#07CC66"/>
<path d="M32.7692 12.5537V23.1691H30V13.4768V12.5537H32.7692Z" fill="#149C4F"/>
<path d="M27.2302 14.8613V23.169H24.4609V15.7844V14.8613H27.2302Z" fill="#149C4F"/>
<path d="M21.6911 17.1689V23.1689H18.9219V18.5536V17.1689H21.6911Z" fill="#149C4F"/>
<path d="M39.2299 8.8617H33.6914V3.32324C35.4037 5.03555 37.5176 7.1494 39.2299 8.8617Z" fill="#E8EBF5"/>
<path d="M42.6923 22.2461C43.0754 22.2461 43.3846 22.5562 43.3846 22.9384C43.3846 23.3206 43.0754 23.6307 42.6923 23.6307C42.3102 23.6307 42 23.3206 42 22.9384C42 22.5562 42.3102 22.2461 42.6923 22.2461Z" fill="#07CC66"/>
<path d="M41.7685 39.3232C42.1516 39.3232 42.4608 39.6334 42.4608 40.0155C42.4608 40.3977 42.1516 40.7079 41.7685 40.7079C41.3863 40.7079 41.0762 40.3977 41.0762 40.0155C41.0762 39.6334 41.3863 39.3232 41.7685 39.3232Z" fill="#07CC66"/>
<path d="M40.3837 4.70801C40.7668 4.70801 41.076 5.01816 41.076 5.40032C41.076 5.78247 40.7668 6.09262 40.3837 6.09262C40.0016 6.09262 39.6914 5.78247 39.6914 5.40032C39.6914 5.01816 40.0016 4.70801 40.3837 4.70801Z" fill="#07CC66"/>
<path d="M5.76848 3.78516C6.15156 3.78516 6.46079 4.09531 6.46079 4.47746C6.46079 4.85962 6.15156 5.16977 5.76848 5.16977C5.38633 5.16977 5.07617 4.85962 5.07617 4.47746C5.07617 4.09531 5.38633 3.78516 5.76848 3.78516Z" fill="#07CC66"/>
<path d="M5.76848 37.9385C6.15156 37.9385 6.46079 38.2486 6.46079 38.6308C6.46079 39.0129 6.15156 39.3231 5.76848 39.3231C5.38633 39.3231 5.07617 39.0129 5.07617 38.6308C5.07617 38.2486 5.38633 37.9385 5.76848 37.9385Z" fill="#07CC66"/>
<path d="M4.8466 21.3232C5.22968 21.3232 5.53891 21.6334 5.53891 22.0155C5.53891 22.3977 5.22968 22.7079 4.8466 22.7079C4.46445 22.7079 4.1543 22.3977 4.1543 22.0155C4.1543 21.6334 4.46445 21.3232 4.8466 21.3232Z" fill="#07CC66"/>
<path d="M24.4612 26.4006H15.692C15.4371 26.4006 15.2305 26.194 15.2305 25.9391C15.2305 25.6841 15.4371 25.4775 15.692 25.4775H24.4612C24.7162 25.4775 24.9228 25.6841 24.9228 25.9391C24.9228 26.194 24.7162 26.4006 24.4612 26.4006Z" fill="#4A78FF"/>
<path d="M24.4612 28.2463H15.692C15.4371 28.2463 15.2305 28.0397 15.2305 27.7848C15.2305 27.5298 15.4371 27.3232 15.692 27.3232H24.4612C24.7162 27.3232 24.9228 27.5298 24.9228 27.7848C24.9228 28.0397 24.7162 28.2463 24.4612 28.2463Z" fill="#4A78FF"/>
<path d="M24.4612 30.093H15.692C15.4371 30.093 15.2305 29.8864 15.2305 29.6315C15.2305 29.3765 15.4371 29.1699 15.692 29.1699H24.4612C24.7162 29.1699 24.9228 29.3765 24.9228 29.6315C24.9228 29.8864 24.7162 30.093 24.4612 30.093Z" fill="#4A78FF"/>
<path d="M24.4612 31.9387H15.692C15.4371 31.9387 15.2305 31.7321 15.2305 31.4772C15.2305 31.2222 15.4371 31.0156 15.692 31.0156H24.4612C24.7162 31.0156 24.9228 31.2222 24.9228 31.4772C24.9228 31.7321 24.7162 31.9387 24.4612 31.9387Z" fill="#4A78FF"/>
<path d="M24.4612 33.7854H15.692C15.4371 33.7854 15.2305 33.5788 15.2305 33.3238C15.2305 33.0689 15.4371 32.8623 15.692 32.8623H24.4612C24.7162 32.8623 24.9228 33.0689 24.9228 33.3238C24.9228 33.5788 24.7162 33.7854 24.4612 33.7854Z" fill="#4A78FF"/>
<path d="M24.4612 35.6311H15.692C15.4371 35.6311 15.2305 35.4245 15.2305 35.1695C15.2305 34.9146 15.4371 34.708 15.692 34.708H24.4612C24.7162 34.708 24.9228 34.9146 24.9228 35.1695C24.9228 35.4245 24.7162 35.6311 24.4612 35.6311Z" fill="#4A78FF"/>
<path d="M24.4612 37.4778H15.692C15.4371 37.4778 15.2305 37.2712 15.2305 37.0162C15.2305 36.7613 15.4371 36.5547 15.692 36.5547H24.4612C24.7162 36.5547 24.9228 36.7613 24.9228 37.0162C24.9228 37.2712 24.7162 37.4778 24.4612 37.4778Z" fill="#4A78FF"/>
<path d="M16.1534 16.7075C15.9749 16.7075 15.8051 16.6035 15.7296 16.4293C15.6282 16.1954 15.7357 15.9237 15.9697 15.8223L29.8158 9.82231C30.0495 9.72105 30.3215 9.8284 30.4227 10.0623C30.5241 10.2962 30.4167 10.568 30.1827 10.6693L16.3366 16.6693C16.2769 16.6953 16.2146 16.7075 16.1534 16.7075Z" fill="#FD6814"/>
<path d="M33.8774 40.9847V44.677H8.03125V7.75391H11.7236V40.9847H33.8774Z" fill="#BCB7C6"/>
<path d="M33.6929 3.32324H11.5391V7.93863V41.1694H33.6929H39.2314V8.8617C37.5191 7.1494 35.4052 5.03555 33.6929 3.32324Z" fill="#ECEBED"/>
<path d="M42.9223 13.9385C43.9423 13.9385 44.7685 14.7646 44.7685 15.7846C44.7685 16.8046 43.9423 17.6308 42.9223 17.6308C41.9032 17.6308 41.0762 16.8046 41.0762 15.7846C41.0762 14.7646 41.9032 13.9385 42.9223 13.9385Z" fill="#FD6814"/>
<path d="M4.61508 30.5537C5.38031 30.5537 5.9997 31.174 5.9997 31.9383C5.9997 32.7026 5.38031 33.3229 4.61508 33.3229C3.85078 33.3229 3.23047 32.7026 3.23047 31.9383C3.23047 31.174 3.85078 30.5537 4.61508 30.5537Z" fill="#FD6814"/>
<path d="M34.7821 38.862C35.3877 38.862 35.8786 38.3711 35.8786 37.7655C35.8786 37.1599 35.3877 36.6689 34.7821 36.6689C34.1765 36.6689 33.6855 37.1599 33.6855 37.7655C33.6855 38.3711 34.1765 38.862 34.7821 38.862Z" fill="#00ACC1"/>
<path d="M36.6026 30.5156C36.8167 30.7297 36.9237 31.0103 36.9237 31.291C36.9237 31.5725 36.8167 31.8531 36.6026 32.0672L31.0243 37.6454C30.596 38.0737 29.9019 38.0737 29.4736 37.6454C29.0453 37.217 29.0453 36.523 29.4736 36.0946L35.0517 30.5156C35.48 30.0873 36.1742 30.0873 36.6026 30.5156Z" fill="#26C6DA"/>
<path d="M30.5165 29.7188C30.9449 29.2904 31.639 29.2904 32.0674 29.7188C32.4957 30.1471 32.4957 30.8412 32.0674 31.2695C31.639 31.6988 30.9449 31.6988 30.5165 31.2695C30.0882 30.8412 30.0882 30.1471 30.5165 29.7188Z" fill="#00ACC1"/>
<path d="M30.0005 12.5537V13.4768H27.2312V14.8614H24.462V15.7845H21.6928V17.1691H18.9235V18.5537H16.1543V23.1691H18.9235H21.6928H24.462H27.2312H30.0005H32.7697V12.5537H30.0005Z" fill="#07CC66"/>
<path d="M32.7692 12.5537V23.1691H30V13.4768V12.5537H32.7692Z" fill="#149C4F"/>
<path d="M27.2302 14.8613V23.169H24.4609V15.7844V14.8613H27.2302Z" fill="#149C4F"/>
<path d="M21.6911 17.1689V23.1689H18.9219V18.5536V17.1689H21.6911Z" fill="#149C4F"/>
<path d="M39.2299 8.8617H33.6914V3.32324C35.4037 5.03555 37.5176 7.1494 39.2299 8.8617Z" fill="#BCB7C6"/>
<path d="M42.6923 22.2461C43.0754 22.2461 43.3846 22.5562 43.3846 22.9384C43.3846 23.3206 43.0754 23.6307 42.6923 23.6307C42.3102 23.6307 42 23.3206 42 22.9384C42 22.5562 42.3102 22.2461 42.6923 22.2461Z" fill="#07CC66"/>
<path d="M41.7685 39.3232C42.1516 39.3232 42.4608 39.6334 42.4608 40.0155C42.4608 40.3977 42.1516 40.7079 41.7685 40.7079C41.3863 40.7079 41.0762 40.3977 41.0762 40.0155C41.0762 39.6334 41.3863 39.3232 41.7685 39.3232Z" fill="#07CC66"/>
<path d="M40.3837 4.70801C40.7668 4.70801 41.076 5.01816 41.076 5.40032C41.076 5.78247 40.7668 6.09262 40.3837 6.09262C40.0016 6.09262 39.6914 5.78247 39.6914 5.40032C39.6914 5.01816 40.0016 4.70801 40.3837 4.70801Z" fill="#07CC66"/>
<path d="M5.76848 3.78516C6.15156 3.78516 6.46079 4.09531 6.46079 4.47746C6.46079 4.85962 6.15156 5.16977 5.76848 5.16977C5.38633 5.16977 5.07617 4.85962 5.07617 4.47746C5.07617 4.09531 5.38633 3.78516 5.76848 3.78516Z" fill="#07CC66"/>
<path d="M5.76848 37.9385C6.15156 37.9385 6.46079 38.2486 6.46079 38.6308C6.46079 39.0129 6.15156 39.3231 5.76848 39.3231C5.38633 39.3231 5.07617 39.0129 5.07617 38.6308C5.07617 38.2486 5.38633 37.9385 5.76848 37.9385Z" fill="#07CC66"/>
<path d="M4.8466 21.3232C5.22968 21.3232 5.53891 21.6334 5.53891 22.0155C5.53891 22.3977 5.22968 22.7079 4.8466 22.7079C4.46445 22.7079 4.1543 22.3977 4.1543 22.0155C4.1543 21.6334 4.46445 21.3232 4.8466 21.3232Z" fill="#07CC66"/>
<path d="M24.4612 26.4006H15.692C15.4371 26.4006 15.2305 26.194 15.2305 25.9391C15.2305 25.6841 15.4371 25.4775 15.692 25.4775H24.4612C24.7162 25.4775 24.9228 25.6841 24.9228 25.9391C24.9228 26.194 24.7162 26.4006 24.4612 26.4006Z" fill="#4A78FF"/>
<path d="M24.4612 28.2463H15.692C15.4371 28.2463 15.2305 28.0397 15.2305 27.7848C15.2305 27.5298 15.4371 27.3232 15.692 27.3232H24.4612C24.7162 27.3232 24.9228 27.5298 24.9228 27.7848C24.9228 28.0397 24.7162 28.2463 24.4612 28.2463Z" fill="#4A78FF"/>
<path d="M24.4612 30.093H15.692C15.4371 30.093 15.2305 29.8864 15.2305 29.6315C15.2305 29.3765 15.4371 29.1699 15.692 29.1699H24.4612C24.7162 29.1699 24.9228 29.3765 24.9228 29.6315C24.9228 29.8864 24.7162 30.093 24.4612 30.093Z" fill="#4A78FF"/>
<path d="M24.4612 31.9387H15.692C15.4371 31.9387 15.2305 31.7321 15.2305 31.4772C15.2305 31.2222 15.4371 31.0156 15.692 31.0156H24.4612C24.7162 31.0156 24.9228 31.2222 24.9228 31.4772C24.9228 31.7321 24.7162 31.9387 24.4612 31.9387Z" fill="#4A78FF"/>
<path d="M24.4612 33.7854H15.692C15.4371 33.7854 15.2305 33.5788 15.2305 33.3238C15.2305 33.0689 15.4371 32.8623 15.692 32.8623H24.4612C24.7162 32.8623 24.9228 33.0689 24.9228 33.3238C24.9228 33.5788 24.7162 33.7854 24.4612 33.7854Z" fill="#4A78FF"/>
<path d="M24.4612 35.6311H15.692C15.4371 35.6311 15.2305 35.4245 15.2305 35.1695C15.2305 34.9146 15.4371 34.708 15.692 34.708H24.4612C24.7162 34.708 24.9228 34.9146 24.9228 35.1695C24.9228 35.4245 24.7162 35.6311 24.4612 35.6311Z" fill="#4A78FF"/>
<path d="M24.4612 37.4778H15.692C15.4371 37.4778 15.2305 37.2712 15.2305 37.0162C15.2305 36.7613 15.4371 36.5547 15.692 36.5547H24.4612C24.7162 36.5547 24.9228 36.7613 24.9228 37.0162C24.9228 37.2712 24.7162 37.4778 24.4612 37.4778Z" fill="#4A78FF"/>
<path d="M16.1534 16.7075C15.9749 16.7075 15.8051 16.6035 15.7296 16.4293C15.6282 16.1954 15.7357 15.9237 15.9697 15.8223L29.8158 9.82231C30.0495 9.72105 30.3215 9.8284 30.4227 10.0623C30.5241 10.2962 30.4167 10.568 30.1827 10.6693L16.3366 16.6693C16.2769 16.6953 16.2146 16.7075 16.1534 16.7075Z" fill="#FD6814"/>
</svg>
