<svg width="48" height="48" viewBox="0 0 48 48" fill="none" xmlns="http://www.w3.org/2000/svg">
<path d="M25.8466 40.5381C26.2297 40.5381 26.5389 40.8482 26.5389 41.2304C26.5389 41.6125 26.2297 41.9227 25.8466 41.9227C25.4645 41.9227 25.1543 41.6125 25.1543 41.2304C25.1543 40.8482 25.4645 40.5381 25.8466 40.5381Z" fill="#4A78FF"/>
<path d="M23.0771 8.69238C23.4602 8.69238 23.7694 9.00254 23.7694 9.38469C23.7694 9.76684 23.4602 10.077 23.0771 10.077C22.6949 10.077 22.3848 9.76684 22.3848 9.38469C22.3848 9.00254 22.6949 8.69238 23.0771 8.69238Z" fill="#4A78FF"/>
<path d="M16.1532 37.7695C16.5363 37.7695 16.8456 38.0797 16.8456 38.4618C16.8456 38.844 16.5363 39.1541 16.1532 39.1541C15.7711 39.1541 15.4609 38.844 15.4609 38.4618C15.4609 38.0797 15.7711 37.7695 16.1532 37.7695Z" fill="#4A78FF"/>
<path d="M8.30754 41.9229C8.69062 41.9229 8.99985 42.233 8.99985 42.6152C8.99985 42.9973 8.69062 43.3075 8.30754 43.3075C7.92539 43.3075 7.61523 42.9973 7.61523 42.6152C7.61523 42.233 7.92539 41.9229 8.30754 41.9229Z" fill="#4A78FF"/>
<path d="M3.69231 28.5381C4.07538 28.5381 4.38462 28.8482 4.38462 29.2304C4.38462 29.6125 4.07538 29.9227 3.69231 29.9227C3.31015 29.9227 3 29.6125 3 29.2304C3 28.8482 3.31015 28.5381 3.69231 28.5381Z" fill="#4A78FF"/>
<path d="M41.0762 11.4609C42.733 11.4609 44.0762 10.1178 44.0762 8.46094C44.0762 6.80408 42.733 5.46094 41.0762 5.46094C39.4193 5.46094 38.0762 6.80408 38.0762 8.46094C38.0762 10.1178 39.4193 11.4609 41.0762 11.4609Z" fill="#FD6814"/>
<path d="M39.462 36.8457C40.7369 36.8457 41.7697 37.8786 41.7697 39.1534C41.7697 40.4282 40.7369 41.4611 39.462 41.4611C38.1881 41.4611 37.1543 40.4282 37.1543 39.1534C37.1543 37.8786 38.1881 36.8457 39.462 36.8457Z" fill="#FD6814"/>
<path d="M41.538 33.6152C41.9211 33.6152 42.2303 33.9254 42.2303 34.3075C42.2303 34.6897 41.9211 34.9998 41.538 34.9998C41.1559 34.9998 40.8457 34.6897 40.8457 34.3075C40.8457 33.9254 41.1559 33.6152 41.538 33.6152Z" fill="#4A78FF"/>
<path d="M31.3837 5C31.7668 5 32.076 5.31015 32.076 5.69231C32.076 6.07446 31.7668 6.38462 31.3837 6.38462C31.0016 6.38462 30.6914 6.07446 30.6914 5.69231C30.6914 5.31015 31.0016 5 31.3837 5Z" fill="#4A78FF"/>
<path d="M38.8091 6.20238V19.8571H34.4043V6.20238C34.4043 5.13643 35.161 4.24843 36.1662 4.04405C36.3089 4.01498 36.456 4 36.6067 4C37.2154 4 37.7651 4.24667 38.1642 4.64486C38.5624 5.04305 38.8091 5.59452 38.8091 6.20238Z" fill="#BCB7C6"/>
<path d="M34.6667 4H32.0238H13.5238C11.5945 4 10.03 5.56457 10.03 7.49474L10.0026 37.9167L10 41H34.6667C34.6667 39.9524 34.6667 20.775 34.6667 19.8571V6.20238C34.6667 5.13643 35.4234 4.24843 36.4286 4.04405V4H34.6667Z" fill="#ECEBED"/>
<path d="M31.1445 25.5831H13.085C12.8418 25.5831 12.6445 25.3859 12.6445 25.1426C12.6445 24.8993 12.8418 24.7021 13.085 24.7021H31.1445C31.3879 24.7021 31.585 24.8993 31.585 25.1426C31.585 25.3859 31.3879 25.5831 31.1445 25.5831Z" fill="#4A78FF"/>
<path d="M31.1445 23.8204H13.085C12.8418 23.8204 12.6445 23.6232 12.6445 23.3799C12.6445 23.1366 12.8418 22.9395 13.085 22.9395H31.1445C31.3879 22.9395 31.585 23.1366 31.585 23.3799C31.585 23.6232 31.3879 23.8204 31.1445 23.8204Z" fill="#4A78FF"/>
<path d="M31.1445 22.0606H13.085C12.8418 22.0606 12.6445 21.8634 12.6445 21.6202C12.6445 21.3769 12.8418 21.1797 13.085 21.1797H31.1445C31.3879 21.1797 31.585 21.3769 31.585 21.6202C31.585 21.8634 31.3879 22.0606 31.1445 22.0606Z" fill="#4A78FF"/>
<path d="M31.1445 20.296H13.085C12.8418 20.296 12.6445 20.0987 12.6445 19.8555C12.6445 19.6123 12.8418 19.415 13.085 19.415H31.1445C31.3879 19.415 31.585 19.6123 31.585 19.8555C31.585 20.0987 31.3879 20.296 31.1445 20.296Z" fill="#4A78FF"/>
<path d="M31.1445 18.5343H13.085C12.8418 18.5343 12.6445 18.337 12.6445 18.0938C12.6445 17.8506 12.8418 17.6533 13.085 17.6533H31.1445C31.3879 17.6533 31.585 17.8506 31.585 18.0938C31.585 18.337 31.3879 18.5343 31.1445 18.5343Z" fill="#4A78FF"/>
<path d="M31.1445 16.7735H13.085C12.8418 16.7735 12.6445 16.5763 12.6445 16.3331C12.6445 16.0898 12.8418 15.8926 13.085 15.8926H31.1445C31.3879 15.8926 31.585 16.0898 31.585 16.3331C31.585 16.5763 31.3879 16.7735 31.1445 16.7735Z" fill="#4A78FF"/>
<path d="M31.1445 15.0118H13.085C12.8418 15.0118 12.6445 14.8146 12.6445 14.5713C12.6445 14.3281 12.8418 14.1309 13.085 14.1309H31.1445C31.3879 14.1309 31.585 14.3281 31.585 14.5713C31.585 14.8146 31.3879 15.0118 31.1445 15.0118Z" fill="#4A78FF"/>
<path d="M31.1445 13.2481H13.085C12.8418 13.2481 12.6445 13.0509 12.6445 12.8077C12.6445 12.5644 12.8418 12.3672 13.085 12.3672H31.1445C31.3879 12.3672 31.585 12.5644 31.585 12.8077C31.585 13.0509 31.3879 13.2481 31.1445 13.2481Z" fill="#4A78FF"/>
<path d="M31.1445 11.4874H13.085C12.8418 11.4874 12.6445 11.2902 12.6445 11.0469C12.6445 10.8037 12.8418 10.6064 13.085 10.6064H31.1445C31.3879 10.6064 31.585 10.8037 31.585 11.0469C31.585 11.2902 31.3879 11.4874 31.1445 11.4874Z" fill="#4A78FF"/>
<path d="M20.5712 38.3556C20.8145 38.3556 21.0117 38.1584 21.0117 37.9151C21.0117 37.6718 20.8145 37.4746 20.5712 37.4746H10.0027L10.0024 37.9151L10.002 38.3556H10.0024H20.5712Z" fill="#BCB7C6"/>
<path opacity="0.1" d="M13.0332 33.1592C12.5699 33.6124 12.1972 34.0858 12.0059 34.5492C12.2644 34.4182 12.5128 34.2436 12.768 33.9683C12.9325 33.7904 13.0568 33.6561 13.1843 33.5419C13.2481 33.4412 13.3052 33.3405 13.3656 33.2398C13.2548 33.2196 13.144 33.1928 13.0332 33.1592Z" fill="#231F20"/>
<path d="M14.546 24.8581C14.8035 24.0881 14.6061 23.3281 14.1051 23.1606C13.6041 22.9931 12.9893 23.4815 12.7318 24.2514C12.4743 25.0213 12.6718 25.7813 13.1728 25.9488C13.6737 26.1164 14.2886 25.628 14.546 24.8581Z" fill="#F6B460"/>
<path d="M5.82189 25.937C6.32288 25.7695 6.52031 25.0095 6.26284 24.2396C6.00538 23.4696 5.39054 22.9813 4.88955 23.1488C4.38856 23.3163 4.19113 24.0763 4.4486 24.8463C4.70606 25.6162 5.3209 26.1046 5.82189 25.937Z" fill="#F6B460"/>
<path d="M7.22656 26.6689H11.7692V34.3374H7.22656V26.6689Z" fill="#F6B460"/>
<path d="M13.7944 18V25.1246C13.7944 27.4983 11.8705 30.0164 9.4968 30.0164C8.30825 30.0164 7.23721 29.3852 6.45828 28.4619C5.6827 27.5353 5.19922 26.3098 5.19922 25.1246V19.9406C5.19922 18.8696 6.06881 18 7.13984 18H13.7944Z" fill="#F7C680"/>
<path d="M19 36.9256V37.0532H0V36.9256C0 34.8473 0.930023 32.9235 2.45768 31.6342C3.2299 30.9829 4.15321 30.533 5.13024 30.2711L7.22866 29.707C7.22866 29.707 7.43683 31.9398 8.91076 32.4602C9.08871 32.524 9.28344 32.5609 9.50168 32.5676C9.71656 32.5609 9.91465 32.5206 10.0926 32.4602C11.5665 31.9364 11.7747 29.707 11.7747 29.707L13.8731 30.2711C14.8502 30.533 15.7701 30.9829 16.5457 31.6342C18.07 32.9235 19 34.8473 19 36.9256Z" fill="#61BE7A"/>
<path d="M6.76077 34.4372C7.04952 33.111 8.89949 32.4563 8.89949 32.4563C7.47256 31.9694 7.22746 29.7031 7.22746 29.7031L5.51179 29.9952C5.38085 30.0154 5.28012 30.1262 5.27677 30.2605C5.22305 32.0567 6.76077 34.4372 6.76077 34.4372Z" fill="#F7F7F7"/>
<path d="M12.2364 34.4372C11.9476 33.111 10.0977 32.4563 10.0977 32.4563C11.3836 32.0836 11.7697 29.7031 11.7697 29.7031L13.4854 29.9952C13.6163 30.0154 13.717 30.1262 13.7204 30.2605C13.7741 32.0567 12.2364 34.4372 12.2364 34.4372Z" fill="#F7F7F7"/>
<path d="M10.0886 32.4648V36.4401H8.91016V32.4648C9.0881 32.5286 9.28284 32.5656 9.50107 32.5723C9.71595 32.5656 9.91069 32.5253 10.0886 32.4648Z" fill="#F7F7F7"/>
<path d="M9.50096 33.623C9.63632 33.623 9.74605 33.5133 9.74605 33.3779C9.74605 33.2425 9.63632 33.1328 9.50096 33.1328C9.36559 33.1328 9.25586 33.2425 9.25586 33.3779C9.25586 33.5133 9.36559 33.623 9.50096 33.623Z" fill="#626C78"/>
<path d="M9.50096 34.6943C9.63632 34.6943 9.74605 34.5846 9.74605 34.4492C9.74605 34.3138 9.63632 34.2041 9.50096 34.2041C9.36559 34.2041 9.25586 34.3138 9.25586 34.4492C9.25586 34.5846 9.36559 34.6943 9.50096 34.6943Z" fill="#626C78"/>
<path d="M9.50096 35.7685C9.63632 35.7685 9.74605 35.6588 9.74605 35.5234C9.74605 35.3881 9.63632 35.2783 9.50096 35.2783C9.36559 35.2783 9.25586 35.3881 9.25586 35.5234C9.25586 35.6588 9.36559 35.7685 9.50096 35.7685Z" fill="#626C78"/>
<path d="M16.489 18C16.489 18.7857 16.1667 19.4974 15.653 20.0145C15.1729 20.4946 14.5215 20.8035 13.7963 20.8471V24.7351C13.427 23.5667 12.779 21.7805 12.1209 21.1863C12.1209 21.1863 9.5659 22.1297 6.7389 21.1863C6.7389 21.1863 6.13455 21.4784 5.20117 23.8017V19.944C5.20117 18.8696 6.07076 18 7.1418 18H16.489Z" fill="#626C78"/>
</svg>
