<svg width="48" height="48" viewBox="0 0 48 48" fill="none" xmlns="http://www.w3.org/2000/svg">
<path d="M34.744 19.4072H30.5488V25.2344H34.744C36.1936 25.2344 37.3744 26.4152 37.3744 27.8648C37.3744 29.3144 36.1936 30.4952 34.744 30.4952H20.0176V36.3224H34.744C39.4096 36.3224 43.2016 32.5304 43.2016 27.8648C43.2016 23.1992 39.4048 19.4072 34.744 19.4072Z" fill="#EE4659"/>
<path d="M32.3864 33.2595C32.3864 40.8771 26.2088 41.0787 18.5912 41.0787C10.9736 41.0787 4.80078 40.8771 4.80078 33.2595C4.80078 25.6419 10.9784 13.4883 18.596 13.4883C26.2136 13.4883 32.3864 25.6419 32.3864 33.2595Z" fill="#F7F7F7"/>
<path d="M27.9318 8.62118C27.9318 11.818 23.751 16.9204 18.5958 16.9204C13.4406 16.9204 9.25977 11.818 9.25977 8.62118C9.25977 6.95078 10.3974 6.78278 12.2166 7.00358C13.8822 7.20038 16.1286 7.72838 18.5958 7.72838C21.063 7.72838 23.3046 7.20038 24.975 6.99878C26.7942 6.78278 27.9318 6.95078 27.9318 8.62118Z" fill="#F7F7F7"/>
<path d="M18.3616 36.7232C22.9796 36.7232 26.7232 32.9796 26.7232 28.3616C26.7232 23.7436 22.9796 20 18.3616 20C13.7436 20 10 23.7436 10 28.3616C10 32.9796 13.7436 36.7232 18.3616 36.7232Z" fill="#F7C680"/>
<path d="M18.3622 21.3916C14.5126 21.3916 11.3926 24.5116 11.3926 28.3612C11.3926 32.2108 14.5126 35.3356 18.3622 35.3356C22.2118 35.3356 25.3366 32.2156 25.3366 28.3612C25.3366 24.5116 22.2118 21.3916 18.3622 21.3916ZM18.3622 34.6108C14.911 34.6108 12.1174 31.8124 12.1174 28.3612C12.1174 24.91 14.9158 22.1116 18.3622 22.1116C21.8182 22.1116 24.6118 24.9148 24.6118 28.3612C24.6118 31.8124 21.8182 34.6108 18.3622 34.6108Z" fill="#F6B460"/>
<path d="M20.34 29.3216C20.34 30.1424 19.7112 30.632 18.8424 30.7328V31.7456H18.0264V30.7232C17.4072 30.6368 16.8168 30.3728 16.3848 30.0032L16.812 29.1296C17.3016 29.5616 17.9928 29.84 18.4968 29.84C18.9384 29.84 19.2024 29.6768 19.2024 29.384C19.2024 28.4864 16.6728 29.0096 16.6728 27.3296C16.6728 26.6048 17.2008 26.1008 18.0312 25.9664V24.9824H18.8472V25.9376C19.3944 25.9904 19.9272 26.1824 20.3208 26.4416L19.908 27.3296C19.404 27.032 18.8088 26.84 18.4296 26.84C18.0696 26.84 17.8248 26.9696 17.8248 27.2288C17.82 28.1024 20.3496 27.6128 20.34 29.3216Z" fill="#F6B460"/>
<path d="M25.5183 13.6376C23.8095 15.4712 21.3423 16.9208 18.5919 16.9208C13.4367 16.9208 9.25586 11.8184 9.25586 8.62162C9.25586 7.81522 9.52466 7.35442 10.0047 7.12402C9.89426 7.35922 9.83186 7.66162 9.83186 8.04082C9.83186 11.2376 14.0127 16.34 19.1679 16.34C21.6255 16.3448 23.8527 15.1928 25.5183 13.6376Z" fill="#E5E5E5"/>
<path d="M27.1888 15.1969C27.1888 15.6097 27.0208 15.9793 26.752 16.2529C26.4832 16.5217 26.1088 16.6897 25.696 16.6897H11.4928C10.6672 16.6897 10 16.0225 10 15.1969C10 14.7841 10.168 14.4097 10.4368 14.1409C10.7056 13.8721 11.08 13.7041 11.4928 13.7041H25.696C26.5216 13.7041 27.1888 14.3713 27.1888 15.1969Z" fill="#61BE7A"/>
<path d="M30.5488 19.4072H31.2688V25.2344H30.5488V19.4072Z" fill="#DB3146"/>
<path d="M30.5473 16.7959V27.8407L21.5137 22.3207L30.5473 16.7959Z" fill="#EE4659"/>
</svg>
