<svg width="48" height="46" viewBox="0 0 48 46" fill="none" xmlns="http://www.w3.org/2000/svg">
<path d="M34.7564 14.1058C34.2369 14.1058 33.7133 14.0433 33.1947 13.9162C31.0498 13.3906 29.3326 11.831 28.6012 9.74404C28.1541 8.46801 27.102 7.51382 25.7873 7.1916L23.6107 6.65826C22.2961 6.33641 20.9221 6.69585 19.9356 7.62079C18.3223 9.13326 16.0788 9.72276 13.9337 9.19673C11.9807 8.71823 10.3839 7.39232 9.55304 5.55885C9.38795 5.19463 9.54939 4.76554 9.9137 4.60044C10.2778 4.43526 10.707 4.59679 10.8721 4.9611C11.5183 6.38694 12.7599 7.4181 14.2784 7.7902C15.946 8.19857 17.6904 7.74041 18.9451 6.56423C20.2902 5.30329 22.1634 4.81251 23.9554 5.25173L26.1321 5.78507C27.9243 6.2242 29.3583 7.52516 29.968 9.26507C30.5369 10.8881 31.872 12.1009 33.5395 12.5096C35.0578 12.8817 36.6355 12.5412 37.8678 11.5755C38.1825 11.329 38.6377 11.3841 38.8844 11.6989C39.1311 12.0137 39.0759 12.4689 38.761 12.7155C37.5972 13.6275 36.1935 14.1057 34.7564 14.1058V14.1058Z" fill="#FFE07D"/>
<path d="M8.60519 8.41466C8.40728 8.41466 8.20806 8.39084 8.011 8.34247C6.68359 8.01716 5.86834 6.67269 6.19356 5.34547C6.51878 4.01816 7.86334 3.20281 9.19056 3.52803C10.518 3.85316 11.3332 5.19762 11.008 6.52494C10.8505 7.16797 10.452 7.71116 9.886 8.05447C9.49347 8.29241 9.05285 8.41466 8.60519 8.41466ZM8.60088 4.90484C8.13747 4.90484 7.71531 5.22022 7.60019 5.68991C7.4651 6.24172 7.80391 6.80056 8.35563 6.93575C8.62309 7.00128 8.89975 6.95862 9.13497 6.81603C9.37028 6.67334 9.53585 6.44759 9.60138 6.18031C9.66681 5.91303 9.62425 5.63628 9.48166 5.40097C9.33897 5.16566 9.11331 5.00009 8.84603 4.93456C8.764 4.9145 8.68178 4.90484 8.60088 4.90484Z" fill="#FFE07D"/>
<path d="M39.4362 15.969C39.2383 15.969 39.0391 15.9452 38.8421 15.8968C37.5146 15.5715 36.6994 14.227 37.0246 12.8998C37.3498 11.5724 38.6942 10.7568 40.0216 11.0824C41.349 11.4075 42.1643 12.7519 41.8391 14.0793C41.6816 14.7223 41.283 15.2655 40.7171 15.6088C40.3244 15.8467 39.8838 15.969 39.4362 15.969ZM39.4319 12.4592C38.9685 12.4592 38.5464 12.7745 38.4312 13.2442C38.2961 13.796 38.635 14.3549 39.1867 14.4901C39.4541 14.5557 39.7307 14.5129 39.966 14.3704C40.2013 14.2277 40.3669 14.0019 40.4324 13.7346C40.4979 13.4674 40.4553 13.1906 40.3127 12.9553C40.17 12.72 39.9444 12.5544 39.6771 12.4889C39.5951 12.4688 39.5128 12.4592 39.4319 12.4592Z" fill="#FFE07D"/>
<path d="M28.4943 33.0875L26.3563 31.3342C26.1774 31.1875 26.0736 30.9683 26.0736 30.7369V28.7592L25.6184 28.0351L26.0736 27.311V12.3518C26.0736 12.2014 26.1175 12.0543 26.1999 11.9285L26.6763 11.2011C27.1977 10.4051 27.2622 9.39377 26.8461 8.53802L24.0158 2.7168L21.1855 8.53802C20.7694 9.39367 20.8339 10.4051 21.3553 11.2011L21.8317 11.9285C21.9141 12.0543 21.958 12.2014 21.958 12.3518V27.311L22.4147 28.0351L21.958 28.7592V30.7369C21.958 30.9683 21.8543 31.1875 21.6753 31.3342L19.5373 33.0874C18.9334 33.5826 18.9824 34.521 19.6344 34.9508L24.0157 37.8382L28.397 34.9508C29.0492 34.5211 29.0981 33.5826 28.4943 33.0875Z" fill="#F48156"/>
<path d="M21.958 27.311H26.0735V28.7593H21.958V27.311Z" fill="#FFF0AF"/>
<path d="M32.7969 41.3724H15.2354L16.4233 38.7132C16.8753 37.7014 17.8799 37.0498 18.9883 37.0498H29.1028C30.2302 37.0498 31.2483 37.7238 31.6888 38.7616L32.7969 41.3724Z" fill="#FBAC90"/>
<path d="M24.0156 4.06833C24.9659 4.06833 25.7363 3.29795 25.7363 2.34764C25.7363 1.39733 24.9659 0.626953 24.0156 0.626953C23.0653 0.626953 22.2949 1.39733 22.2949 2.34764C22.2949 3.29795 23.0653 4.06833 24.0156 4.06833Z" fill="#FFF0AF"/>
<path d="M13.9811 25.1496C13.67 25.1496 13.3823 24.9475 13.288 24.6342L8.57849 8.99773L3.86895 24.6341C3.75355 25.017 3.34958 25.2336 2.9667 25.1187C2.58383 25.0033 2.3668 24.5993 2.48211 24.2164L7.88502 6.27795C7.97727 5.97204 8.25899 5.7627 8.57839 5.7627C8.89789 5.7627 9.17961 5.97213 9.27177 6.27795L14.6747 24.2164C14.79 24.5993 14.573 25.0033 14.1901 25.1187C14.1205 25.1396 14.0502 25.1496 13.9811 25.1496V25.1496Z" fill="#FFF0AF"/>
<path d="M2.26465 25.4839C3.29712 27.9534 5.73443 29.6891 8.57852 29.6891C11.4227 29.6891 13.86 27.9534 14.8924 25.4839H2.26465Z" fill="#FBAC90"/>
<path d="M44.8236 32.6877C44.512 32.6877 44.2241 32.485 44.1302 32.1711L39.421 16.4517L34.712 32.1711C34.5972 32.5542 34.1935 32.7719 33.8105 32.657C33.4274 32.5423 33.2098 32.1386 33.3246 31.7555L38.7274 13.7205C38.8193 13.414 39.1012 13.2041 39.421 13.2041C39.741 13.2041 40.0229 13.414 40.1147 13.7205L45.5176 31.7555C45.6324 32.1386 45.4149 32.5423 45.0317 32.657C44.9623 32.6778 44.8924 32.6877 44.8236 32.6877Z" fill="#FFF0AF"/>
<path d="M15.7096 26.9321H1.44825C0.648375 26.9321 0 26.2838 0 25.4839C0 24.684 0.648375 24.0356 1.44825 24.0356H15.7096C16.5095 24.0356 17.1578 24.684 17.1578 25.4839C17.1579 26.2838 16.5095 26.9321 15.7096 26.9321Z" fill="#F48156"/>
<path d="M37.4699 45.3735H10.5628C9.98762 45.3735 9.61609 44.765 9.87897 44.2534L10.7405 42.5764C11.2217 41.6397 12.1863 41.0508 13.2393 41.0508H34.9025C36.0107 41.0508 37.0155 41.7023 37.4675 42.7142L38.172 44.2911C38.399 44.7997 38.0268 45.3735 37.4699 45.3735V45.3735Z" fill="#F48156"/>
<path d="M39.3994 35.6075C44.055 35.6075 47.8292 31.8334 47.8292 27.1778C47.8292 22.5222 44.055 18.748 39.3994 18.748C34.7438 18.748 30.9697 22.5222 30.9697 27.1778C30.9697 31.8334 34.7438 35.6075 39.3994 35.6075Z" fill="#057096"/>
<path d="M43.6369 19.8887C44.3621 21.1336 44.7779 22.5809 44.7779 24.1255C44.7779 28.7811 41.0038 32.5552 36.3482 32.5552C34.8035 32.5552 33.3562 32.1395 32.1113 31.4142C33.572 33.9216 36.289 35.6072 39.4001 35.6072C44.0557 35.6072 47.8298 31.8331 47.8298 27.1775C47.8297 24.0665 46.1443 21.3494 43.6369 19.8887V19.8887Z" fill="#055E7F"/>
<path d="M37.5346 32.3408C37.4411 32.3408 37.3463 32.3227 37.2547 32.2843C36.8859 32.1295 36.7124 31.7051 36.8671 31.3363L40.7685 22.0402C40.9233 21.6714 41.3478 21.4982 41.7165 21.6527C42.0853 21.8075 42.2588 22.2319 42.1041 22.6007L38.2027 31.8967C38.0863 32.174 37.8175 32.3408 37.5346 32.3408V32.3408Z" fill="#ECF4FF"/>
<path d="M36.7877 26.6176C35.438 26.6176 34.3398 25.3941 34.3398 23.8904C34.3398 22.3865 35.438 21.1631 36.7877 21.1631C38.1375 21.1631 39.2357 22.3866 39.2357 23.8904C39.2358 25.3942 38.1376 26.6176 36.7877 26.6176ZM36.7877 22.6113C36.2365 22.6113 35.7881 23.1851 35.7881 23.8904C35.7881 24.5956 36.2365 25.1694 36.7877 25.1694C37.339 25.1694 37.7874 24.5956 37.7874 23.8904C37.7874 23.1851 37.339 22.6113 36.7877 22.6113Z" fill="#ECF4FF"/>
<path d="M42.0563 32.9736C40.7066 32.9736 39.6084 31.7501 39.6084 30.2463C39.6084 28.7426 40.7066 27.519 42.0563 27.519C43.406 27.519 44.5042 28.7426 44.5042 30.2463C44.5042 31.7501 43.406 32.9736 42.0563 32.9736ZM42.0563 28.9673C41.5051 28.9673 41.0566 29.541 41.0566 30.2463C41.0566 30.9516 41.5051 31.5254 42.0563 31.5254C42.6076 31.5254 43.056 30.9516 43.056 30.2463C43.056 29.541 42.6076 28.9673 42.0563 28.9673V28.9673Z" fill="#ECF4FF"/>
<path d="M45.7352 33.022C44.7027 35.4915 42.2654 37.2272 39.4213 37.2272C36.5771 37.2272 34.1398 35.4915 33.1074 33.022H45.7352Z" fill="#FBAC90"/>
<path d="M41.2719 33.022C40.5232 34.8129 39.0353 36.2172 37.1895 36.8541C37.8888 37.0954 38.6394 37.2272 39.4209 37.2272C42.2651 37.2272 44.7024 35.4915 45.7348 33.022H41.2719Z" fill="#F48156"/>
<path d="M32.29 34.4702H46.5514C47.3513 34.4702 47.9996 33.8219 47.9996 33.022C47.9996 32.2221 47.3513 31.5737 46.5514 31.5737H32.29C31.4902 31.5737 30.8418 32.2221 30.8418 33.022C30.8417 33.8219 31.4902 34.4702 32.29 34.4702V34.4702Z" fill="#F48156"/>
</svg>
