<svg width="64" height="64" viewBox="0 0 64 64" fill="none" xmlns="http://www.w3.org/2000/svg">
<rect width="64" height="64" rx="32" fill="#E8F1FF"/>
<g clip-path="url(#clip0_5881_73211)">
<path d="M16.4707 40.2669V9.377C16.4707 8.6165 17.0871 8 17.8476 8H42.2997C43.0602 8 43.6767 8.6165 43.6767 9.377V40.2669C43.6767 41.0274 43.0602 41.6439 42.2997 41.6439H17.8476C17.0871 41.6439 16.4707 41.0274 16.4707 40.2669Z" fill="#057096"/>
<path d="M42.2997 8H41.3196V37.9099C41.3196 38.6704 40.7031 39.2869 39.9426 39.2869H16.4707V40.267C16.4707 41.0275 17.0872 41.644 17.8477 41.644H42.2998C43.0603 41.644 43.6768 41.0275 43.6768 40.267V9.377C43.6766 8.6165 43.0602 8 42.2997 8V8Z" fill="#055E7F"/>
<path d="M20.3359 34.696V11.5503C20.3359 11.2914 20.5458 11.0815 20.8047 11.0815H39.342C39.6008 11.0815 39.8107 11.2914 39.8107 11.5503V34.696C39.8107 34.9549 39.6008 35.1648 39.342 35.1648H20.8047C20.5458 35.1648 20.3359 34.955 20.3359 34.696Z" fill="#B4D9FC"/>
<path d="M39.342 11.0815H37.5855V32.4585C37.5855 32.7242 37.37 32.9396 37.1043 32.9396H20.3359V34.6961C20.3359 34.955 20.5458 35.1649 20.8047 35.1649H39.342C39.6008 35.1649 39.8107 34.955 39.8107 34.6961V11.5503C39.8107 11.2914 39.6009 11.0815 39.342 11.0815Z" fill="#8AC7FD"/>
<path d="M39.8107 30.4262H26.6855C26.4267 30.4262 26.2168 30.2163 26.2168 29.9574V11.0815H39.342C39.6008 11.0815 39.8107 11.2914 39.8107 11.5503V30.4262Z" fill="#ECF4FF"/>
<path d="M39.342 11.0815H37.1172V30.4262H39.8107V11.5503C39.8107 11.2914 39.6009 11.0815 39.342 11.0815Z" fill="#DDEAFB"/>
<path d="M30.0733 39.5557C30.6218 39.5557 31.0665 39.111 31.0665 38.5625C31.0665 38.014 30.6218 37.5693 30.0733 37.5693C29.5247 37.5693 29.0801 38.014 29.0801 38.5625C29.0801 39.111 29.5247 39.5557 30.0733 39.5557Z" fill="#004C67"/>
<path d="M34.1383 25.9707L26.6992 30.426H35.1699L34.1383 25.9707Z" fill="#DDEAFB"/>
<path d="M31.8789 30.426H35.1686L34.137 25.9707L31.8789 27.323V30.426Z" fill="#CBE2FF"/>
<path d="M33.2955 55.922C33.4854 56.0263 33.7248 56.0263 33.9147 55.922L35.3819 55.1154C35.5718 55.0111 35.8111 55.0111 36.001 55.1154L37.4683 55.922C37.6582 56.0263 37.8974 56.0263 38.0873 55.922L39.5549 55.1154C39.7447 55.011 39.984 55.011 40.1739 55.1154L41.6415 55.922C41.8314 56.0263 42.0706 56.0263 42.2605 55.922L43.7283 55.1154C43.9181 55.011 44.1574 55.011 44.3473 55.1154L45.8149 55.922C46.0048 56.0263 46.244 56.0263 46.4339 55.922L47.275 55.4598C47.4343 55.3722 47.5313 55.2171 47.5313 55.0498V26.361C47.5313 26.0953 47.2905 25.8799 46.9935 25.8799H32.8737C32.5768 25.8799 32.3359 26.0953 32.3359 26.361V55.1254C32.3359 55.2925 32.433 55.4478 32.5922 55.5353L33.2955 55.922Z" fill="white"/>
<path d="M46.9933 25.8799H44.4038V52.2522C44.4038 52.4195 44.3067 52.5746 44.1474 52.6622L43.3064 53.1244C43.1165 53.2287 42.8772 53.2287 42.6874 53.1244L41.2198 52.3178C41.0299 52.2134 40.7907 52.2134 40.6008 52.3178L39.1331 53.1244C38.9432 53.2287 38.7039 53.2287 38.514 53.1244L37.0464 52.3178C36.8565 52.2134 36.6173 52.2134 36.4274 52.3178L34.9599 53.1244C34.77 53.2287 34.5306 53.2287 34.3408 53.1244L32.8735 52.3179C32.7099 52.2279 32.5097 52.2159 32.3359 52.281V55.1255C32.3359 55.2926 32.433 55.4479 32.5922 55.5354L33.2955 55.9221C33.4854 56.0264 33.7248 56.0264 33.9147 55.9221L35.3819 55.1155C35.5718 55.0112 35.8111 55.0112 36.001 55.1155L37.4683 55.9221C37.6582 56.0264 37.8975 56.0264 38.0873 55.9221L39.5549 55.1154C39.7447 55.0111 39.984 55.0111 40.1739 55.1154L41.6415 55.9221C41.8314 56.0264 42.0706 56.0264 42.2605 55.9221L43.7283 55.1154C43.9181 55.0111 44.1574 55.0111 44.3473 55.1154L45.8149 55.9221C46.0048 56.0264 46.244 56.0264 46.4339 55.9221L47.275 55.4599C47.4343 55.3723 47.5313 55.2172 47.5313 55.0499V26.361C47.5311 26.0953 47.2904 25.8799 46.9933 25.8799Z" fill="#E4ECF7"/>
<path d="M30.3828 14.6817H28.9834C28.5849 14.6817 28.2617 14.3585 28.2617 13.96C28.2617 13.5614 28.5849 13.2383 28.9834 13.2383H30.3828C30.7813 13.2383 31.1045 13.5614 31.1045 13.96C31.1045 14.3585 30.7813 14.6817 30.3828 14.6817Z" fill="#CBE2FF"/>
<path d="M37.0204 17.7139H28.9834C28.5849 17.7139 28.2617 17.3907 28.2617 16.9922C28.2617 16.5937 28.5849 16.2705 28.9834 16.2705H37.0204C37.419 16.2705 37.7421 16.5937 37.7421 16.9922C37.7421 17.3907 37.419 17.7139 37.0204 17.7139Z" fill="#CBE2FF"/>
<path d="M34.2683 20.7319H28.9834C28.5849 20.7319 28.2617 20.4088 28.2617 20.0103C28.2617 19.6117 28.5849 19.2886 28.9834 19.2886H34.2683C34.6669 19.2886 34.99 19.6117 34.99 20.0103C34.99 20.4089 34.6669 20.7319 34.2683 20.7319Z" fill="#CBE2FF"/>
<path d="M37.0204 23.75H28.9834C28.5849 23.75 28.2617 23.4269 28.2617 23.0283C28.2617 22.6298 28.5849 22.3066 28.9834 22.3066H37.0204C37.419 22.3066 37.7421 22.6298 37.7421 23.0283C37.7421 23.4269 37.419 23.75 37.0204 23.75Z" fill="#CBE2FF"/>
<g clip-path="url(#clip1_5881_73211)">
<path d="M42.4186 37.2284C42.571 37.6202 43.4192 40.5592 41.5979 41.4297L37.8688 41.2154C36.0403 40.5324 37.0626 37.6202 37.2149 37.2284C37.2623 37.0942 37.3513 36.9786 37.4689 36.8985C37.5865 36.8184 37.7266 36.7779 37.8688 36.7829C38.0554 36.4423 38.3291 36.1574 38.662 35.9574C38.9949 35.7573 39.3749 35.6493 39.7632 35.6444C41.1751 35.61 42.2125 36.6404 42.348 37.0894L42.3485 37.0915C42.3762 37.1348 42.3997 37.1806 42.4186 37.2284Z" fill="#212121"/>
<path d="M40.6738 42.3389V42.9391L43.8621 43.9939C44.0505 44.0563 44.2115 44.1821 44.3175 44.3499C44.4234 44.5177 44.4679 44.717 44.4433 44.914L44.1256 47.4558C44.1192 47.5076 44.094 47.5553 44.0548 47.5898C44.0157 47.6244 43.9653 47.6435 43.913 47.6435H35.7205C35.6682 47.6435 35.6178 47.6244 35.5787 47.5898C35.5395 47.5553 35.5143 47.5076 35.5078 47.4558L35.1902 44.9145C35.1656 44.7175 35.2102 44.518 35.3163 44.3502C35.4225 44.1824 35.5836 44.0567 35.7722 43.9945L38.9539 42.9449L38.9596 42.3389H40.6738Z" fill="#FFAB91"/>
<path d="M43.8621 43.9941L41.4831 43.207L41.533 44.5346L39.8167 45.1367L38.1004 44.5346L38.1502 43.2101L35.7722 43.9946C35.5836 44.0568 35.4224 44.1826 35.3163 44.3505C35.2101 44.5183 35.1656 44.7178 35.1902 44.9149L35.5079 47.4561C35.5143 47.5079 35.5395 47.5556 35.5787 47.5902C35.6178 47.6247 35.6683 47.6438 35.7205 47.6438H43.9129C43.9652 47.6438 44.0156 47.6247 44.0547 47.5902C44.0939 47.5556 44.1191 47.5079 44.1256 47.4561L44.4433 44.9143C44.4679 44.7173 44.4235 44.5179 44.3175 44.3501C44.2115 44.1823 44.0505 44.0565 43.8621 43.9941Z" fill="#384B91"/>
<path d="M39.8174 44.8347L39.6032 43.9468L38.7461 43.5298L39.8174 44.8347Z" fill="#697F87"/>
<path d="M39.8164 44.8347L40.0307 43.9468L40.8878 43.5298L39.8164 44.8347Z" fill="#697F87"/>
<path d="M41.4412 45.8602C41.69 44.8286 41.473 43.3752 41.4443 43.1938L41.3847 43.1741L41.2614 43.1333L41.204 43.1201L39.8168 44.8343L38.4296 43.1201L38.4049 43.1258L38.2129 43.1891L38.1888 43.1971C38.1586 43.3882 37.9446 44.8329 38.1924 45.8602C38.3603 46.5328 38.7048 47.1483 39.1901 47.6433H40.4435C40.9288 47.1483 41.2733 46.5328 41.4412 45.8602Z" fill="#C6DCE8"/>
<path d="M42.5892 39.9298C42.5888 39.705 42.5001 39.4893 42.3422 39.3292C42.1843 39.1691 41.9698 39.0775 41.7449 39.0741V39.0728H41.3164V40.7869H41.7449V40.7856C41.9698 40.7822 42.1843 40.6905 42.3422 40.5305C42.5001 40.3704 42.5888 40.1547 42.5892 39.9298Z" fill="#F99F84"/>
<path d="M37.8883 39.0728C37.661 39.0728 37.443 39.1631 37.2823 39.3238C37.1215 39.4845 37.0312 39.7025 37.0312 39.9298C37.0312 40.1571 37.1215 40.3751 37.2823 40.5359C37.443 40.6966 37.661 40.7869 37.8883 40.7869H38.3169V39.0728H37.8883Z" fill="#F99F84"/>
<path d="M40.6731 42.7661V41.6963H38.959V42.7661C39.5095 42.9843 40.1226 42.9843 40.6731 42.7661Z" fill="#FFAB91"/>
<path d="M37.8887 39.0728C37.8887 37.7711 38.064 36.7158 39.8171 36.7158C41.5702 36.7158 41.7455 37.7711 41.7455 39.0728V40.5727C41.7455 41.0841 41.5423 41.5746 41.1807 41.9363C40.819 42.2979 40.3285 42.5011 39.8171 42.5011C39.3056 42.5011 38.8151 42.2979 38.4535 41.9363C38.0918 41.5746 37.8887 41.0841 37.8887 40.5727V39.0728Z" fill="#FFAB91"/>
<path d="M41.4284 37.0102C41.0704 36.6236 40.0203 36.4782 39.2194 36.5683C38.9978 36.561 38.7781 36.6122 38.5825 36.7166C38.4573 36.7596 38.3484 36.8401 38.2707 36.9472C38.2493 36.9679 38.2276 36.9876 38.2067 37.0102C37.6328 37.6301 37.8891 39.0726 37.8891 39.0726C37.921 38.775 37.9779 38.4806 38.0592 38.1925C38.1073 38.0626 38.1985 37.9532 38.3176 37.8826C38.5441 37.8153 38.7451 37.6815 38.8947 37.4986C39.1714 37.6911 39.486 37.822 39.8175 37.8826C40.3156 37.9433 40.8193 37.9433 41.3174 37.8826C41.4365 37.9532 41.5278 38.0626 41.5758 38.1925C41.6572 38.4806 41.7141 38.775 41.7459 39.0726C41.7459 39.0726 42.0023 37.6301 41.4284 37.0102Z" fill="#212121"/>
<path d="M39.0066 44.8668L39.6023 43.9467L38.9537 42.9448L38.2363 43.1816L39.0066 44.8668Z" fill="#90A4AE"/>
<path d="M41.3985 43.179L40.6741 42.9395L40.0312 43.9469L40.6269 44.867L41.3985 43.179Z" fill="#90A4AE"/>
<path d="M38.5313 43.084L37.354 43.4723L36.9258 44.2945L37.5863 44.8577L37.2698 45.6825L39.1891 47.6435C38.6708 46.7881 38.4055 44.5741 38.5313 43.084Z" fill="#2C58D3"/>
<path d="M42.0461 44.8578L42.7066 44.2946L42.277 43.4697L41.1008 43.0806C41.2274 44.5707 40.9621 46.7875 40.4434 47.6436L42.3627 45.6826L42.0461 44.8578Z" fill="#2C58D3"/>
</g>
</g>
<defs>
<clipPath id="clip0_5881_73211">
<rect width="48" height="48" fill="white" transform="translate(8 8)"/>
</clipPath>
<clipPath id="clip1_5881_73211">
<rect width="12" height="12" fill="white" transform="translate(33.9336 35.6436)"/>
</clipPath>
</defs>
</svg>
