<svg width="64" height="64" viewBox="0 0 64 64" fill="none" xmlns="http://www.w3.org/2000/svg">
<rect width="64" height="64" rx="32" fill="#E8F1FF"/>
<g clip-path="url(#clip0_5881_73301)">
<path d="M16.4707 40.2669V9.377C16.4707 8.6165 17.0871 8 17.8476 8H42.2997C43.0602 8 43.6767 8.6165 43.6767 9.377V40.2669C43.6767 41.0274 43.0602 41.6439 42.2997 41.6439H17.8476C17.0871 41.6439 16.4707 41.0274 16.4707 40.2669Z" fill="#057096"/>
<path d="M42.2997 8H41.3196V37.9099C41.3196 38.6704 40.7031 39.2869 39.9426 39.2869H16.4707V40.267C16.4707 41.0275 17.0872 41.644 17.8477 41.644H42.2998C43.0603 41.644 43.6768 41.0275 43.6768 40.267V9.377C43.6766 8.6165 43.0602 8 42.2997 8V8Z" fill="#055E7F"/>
<path d="M20.3359 34.696V11.5503C20.3359 11.2914 20.5458 11.0815 20.8047 11.0815H39.342C39.6008 11.0815 39.8107 11.2914 39.8107 11.5503V34.696C39.8107 34.9549 39.6008 35.1648 39.342 35.1648H20.8047C20.5458 35.1648 20.3359 34.955 20.3359 34.696Z" fill="#B4D9FC"/>
<path d="M39.342 11.0815H37.5855V32.4585C37.5855 32.7242 37.37 32.9396 37.1043 32.9396H20.3359V34.6961C20.3359 34.955 20.5458 35.1649 20.8047 35.1649H39.342C39.6008 35.1649 39.8107 34.955 39.8107 34.6961V11.5503C39.8107 11.2914 39.6009 11.0815 39.342 11.0815Z" fill="#8AC7FD"/>
<path d="M36.8713 31.9999H23.7461C23.4873 31.9999 23.2773 31.79 23.2773 31.5312V12.6553H36.4025C36.6614 12.6553 36.8713 12.8652 36.8713 13.124V31.9999Z" fill="#ECF4FF"/>
<path d="M39.342 11.0815H37.1172V30.4262H39.8107V11.5503C39.8107 11.2914 39.6009 11.0815 39.342 11.0815Z" fill="#DDEAFB"/>
<path d="M30.0733 39.5557C30.6218 39.5557 31.0665 39.111 31.0665 38.5625C31.0665 38.014 30.6218 37.5693 30.0733 37.5693C29.5247 37.5693 29.0801 38.014 29.0801 38.5625C29.0801 39.111 29.5247 39.5557 30.0733 39.5557Z" fill="#004C67"/>
<path d="M34.1383 25.9707L26.6992 30.426H35.1699L34.1383 25.9707Z" fill="#DDEAFB"/>
<path d="M31.8789 30.426H35.1686L34.137 25.9707L31.8789 27.323V30.426Z" fill="#CBE2FF"/>
<path d="M33.2955 55.922C33.4854 56.0263 33.7248 56.0263 33.9147 55.922L35.3819 55.1154C35.5718 55.0111 35.8111 55.0111 36.001 55.1154L37.4683 55.922C37.6582 56.0263 37.8974 56.0263 38.0873 55.922L39.5549 55.1154C39.7447 55.011 39.984 55.011 40.1739 55.1154L41.6415 55.922C41.8314 56.0263 42.0706 56.0263 42.2605 55.922L43.7283 55.1154C43.9181 55.011 44.1574 55.011 44.3473 55.1154L45.8149 55.922C46.0048 56.0263 46.244 56.0263 46.4339 55.922L47.275 55.4598C47.4343 55.3722 47.5313 55.2171 47.5313 55.0498V26.361C47.5313 26.0953 47.2905 25.8799 46.9935 25.8799H32.8737C32.5768 25.8799 32.3359 26.0953 32.3359 26.361V55.1254C32.3359 55.2925 32.433 55.4478 32.5922 55.5353L33.2955 55.922Z" fill="white"/>
<path d="M46.9933 25.8799H44.4038V52.2522C44.4038 52.4195 44.3067 52.5746 44.1474 52.6622L43.3064 53.1244C43.1165 53.2287 42.8772 53.2287 42.6874 53.1244L41.2198 52.3178C41.0299 52.2134 40.7907 52.2134 40.6008 52.3178L39.1331 53.1244C38.9432 53.2287 38.7039 53.2287 38.514 53.1244L37.0464 52.3178C36.8565 52.2134 36.6173 52.2134 36.4274 52.3178L34.9599 53.1244C34.77 53.2287 34.5306 53.2287 34.3408 53.1244L32.8735 52.3179C32.7099 52.2279 32.5097 52.2159 32.3359 52.281V55.1255C32.3359 55.2926 32.433 55.4479 32.5922 55.5354L33.2955 55.9221C33.4854 56.0264 33.7248 56.0264 33.9147 55.9221L35.3819 55.1155C35.5718 55.0112 35.8111 55.0112 36.001 55.1155L37.4683 55.9221C37.6582 56.0264 37.8975 56.0264 38.0873 55.9221L39.5549 55.1154C39.7447 55.0111 39.984 55.0111 40.1739 55.1154L41.6415 55.9221C41.8314 56.0264 42.0706 56.0264 42.2605 55.9221L43.7283 55.1154C43.9181 55.0111 44.1574 55.0111 44.3473 55.1154L45.8149 55.9221C46.0048 56.0264 46.244 56.0264 46.4339 55.9221L47.275 55.4599C47.4343 55.3723 47.5313 55.2172 47.5313 55.0499V26.361C47.5311 26.0953 47.2904 25.8799 46.9933 25.8799Z" fill="#D8E0EB"/>
<path d="M27.4414 16.2559H26.042C25.6435 16.2559 25.3203 15.9327 25.3203 15.5342C25.3203 15.1357 25.6435 14.8125 26.042 14.8125H27.4414C27.8399 14.8125 28.1631 15.1357 28.1631 15.5342C28.1631 15.9327 27.8399 16.2559 27.4414 16.2559Z" fill="#CBE2FF"/>
<path d="M34.079 19.2881H26.042C25.6435 19.2881 25.3203 18.9649 25.3203 18.5664C25.3203 18.1679 25.6435 17.8447 26.042 17.8447H34.079C34.4776 17.8447 34.8007 18.1679 34.8007 18.5664C34.8007 18.9649 34.4776 19.2881 34.079 19.2881Z" fill="#CBE2FF"/>
<path d="M31.3269 22.3057H26.042C25.6435 22.3057 25.3203 21.9825 25.3203 21.584C25.3203 21.1855 25.6435 20.8623 26.042 20.8623H31.3269C31.7255 20.8623 32.0486 21.1855 32.0486 21.584C32.0486 21.9826 31.7255 22.3057 31.3269 22.3057Z" fill="#CBE2FF"/>
<path d="M34.081 25.3242H26.044C25.6454 25.3242 25.3223 25.0011 25.3223 24.6025C25.3223 24.204 25.6454 23.8809 26.044 23.8809H34.081C34.4796 23.8809 34.8026 24.204 34.8026 24.6025C34.8026 25.0011 34.4796 25.3242 34.081 25.3242Z" fill="#CBE2FF"/>
<g clip-path="url(#clip1_5881_73301)">
<g clip-path="url(#clip2_5881_73301)">
<path d="M42.991 40.7495C42.991 40.6791 42.9885 40.6079 42.9835 40.5367L43.6561 39.9609L43.6232 39.8308C43.5782 39.6525 43.5199 39.4763 43.4498 39.3068C43.3796 39.1376 43.2963 38.9717 43.202 38.8139L43.1333 38.6986L42.2519 38.7669C42.158 38.6585 42.0562 38.5566 41.9479 38.4624L42.0163 37.5795L41.9011 37.5107C41.7432 37.4165 41.5774 37.3331 41.408 37.2628C41.2387 37.1928 41.0625 37.1345 40.8842 37.0895L40.7541 37.0566L40.1793 37.728C40.1065 37.7228 40.034 37.7202 39.9617 37.7202L39.3125 38.3693L39.9617 39.0184C40.9162 39.0184 41.6927 39.795 41.6927 40.7495C41.6927 41.704 40.9162 42.4806 39.9617 42.4806L39.3125 43.1297L39.9617 43.7789C40.0325 43.7789 40.1033 43.7764 40.1745 43.7714L40.7503 44.444L40.8804 44.4111C41.0587 44.3661 41.2349 44.3078 41.4044 44.2377C41.5736 44.1675 41.7395 44.0841 41.8973 43.9899L42.0125 43.9212L41.9442 43.0398C42.0527 42.9459 42.1546 42.8441 42.2487 42.7358L43.1317 42.8042L43.2005 42.689C43.2947 42.5311 43.3781 42.3653 43.4483 42.1959C43.5184 42.0266 43.5767 41.8504 43.6217 41.6721L43.6545 41.542L42.9832 40.9672C42.9884 40.8944 42.991 40.8215 42.991 40.7495Z" fill="#587AA1"/>
<path d="M36.9327 40.7495C36.9327 40.6791 36.9352 40.6079 36.9402 40.5367L36.2676 39.9609L36.3004 39.8308C36.3454 39.6525 36.4038 39.4763 36.4738 39.3068C36.544 39.1376 36.6274 38.9717 36.7216 38.8139L36.7904 38.6986L37.6717 38.7669C37.7657 38.6585 37.8674 38.5566 37.9757 38.4624L37.9073 37.5795L38.0225 37.5107C38.1804 37.4165 38.3463 37.3331 38.5157 37.2628C38.685 37.1928 38.8612 37.1345 39.0394 37.0895L39.1695 37.0566L39.7443 37.728C39.8172 37.7228 39.8896 37.7202 39.962 37.7202V39.0184C39.0075 39.0184 38.2309 39.795 38.2309 40.7495C38.2309 41.704 39.0075 42.4806 39.962 42.4806V43.7789C39.8912 43.7789 39.8204 43.7764 39.7492 43.7714L39.1733 44.444L39.0432 44.4111C38.865 44.3661 38.6888 44.3078 38.5193 44.2377C38.3501 44.1675 38.1842 44.0841 38.0263 43.9899L37.9111 43.9212L37.9794 43.0398C37.871 42.9459 37.7691 42.8441 37.6749 42.7358L36.792 42.8042L36.7232 42.689C36.629 42.5311 36.5456 42.3653 36.4753 42.1959C36.4053 42.0266 36.347 41.8504 36.302 41.6721L36.2691 41.542L36.9405 40.9672C36.9353 40.8944 36.9327 40.8215 36.9327 40.7495Z" fill="#6C90B8"/>
<path d="M39.9621 38.5859L39.5293 39.0187L39.9621 39.4515C40.6779 39.4515 41.2604 40.0339 41.2604 40.7498C41.2604 41.4657 40.6779 42.0481 39.9621 42.0481L39.5293 42.4808L39.9621 42.9136C41.1552 42.9136 42.1259 41.9429 42.1259 40.7498C42.1259 39.5566 41.1552 38.5859 39.9621 38.5859Z" fill="#81A6C7"/>
<path d="M38.6644 40.7498C38.6644 40.0339 39.2468 39.4515 39.9627 39.4515V38.5859C38.7695 38.5859 37.7988 39.5566 37.7988 40.7498C37.7988 41.9429 38.7695 42.9136 39.9627 42.9136V42.0481C39.2468 42.0481 38.6644 41.4657 38.6644 40.7498Z" fill="#97BEDB"/>
</g>
<path d="M40.6813 49H35.4446C35.2871 49 35.1836 48.8869 35.1836 48.7209V42H40.6836V49H40.6813Z" fill="url(#paint0_linear_5881_73301)"/>
<path d="M40.6836 49H44.4177C44.5781 49 44.6836 48.8869 44.6836 48.7209V42H40.6836V49Z" fill="#FF9518"/>
<path d="M42.3014 44.1749H45.4573C45.6168 44.1749 45.7216 44.0393 45.7216 43.9036C45.7216 43.8498 45.7216 43.7937 45.6692 43.768L44.6621 42H40.6836L41.8503 43.9317C41.9573 44.0673 42.1146 44.1749 42.3014 44.1749Z" fill="#C4573A"/>
<path d="M39.1396 44.1774H34.3932C34.2337 44.1774 34.1289 44.0417 34.1289 43.9061C34.1289 43.8523 34.1289 43.7962 34.1813 43.7704L35.1885 42.0024H40.7574L39.5908 43.9341C39.486 44.0698 39.3265 44.1774 39.1396 44.1774Z" fill="#C4573A"/>
<path d="M36.5056 46.4087H36.7945V47.3738C36.7945 47.4124 36.8257 47.4436 36.8643 47.4436H37.3836C37.4221 47.4436 37.4534 47.4123 37.4534 47.3738V46.4087H37.7423C37.8306 46.4087 37.8835 46.3104 37.8349 46.2366L37.2165 45.2998C37.1727 45.2334 37.0752 45.2334 37.0314 45.2998L36.4131 46.2366C36.3644 46.3104 36.4173 46.4087 36.5056 46.4087Z" fill="#C4573A"/>
<path d="M38.0211 47.7729H36.2285C36.2037 47.7729 36.1836 47.793 36.1836 47.8178V48.081C36.1836 48.1058 36.2037 48.1259 36.2285 48.1259H38.0211C38.0459 48.1259 38.066 48.1058 38.066 48.081V47.8178C38.066 47.793 38.0459 47.7729 38.0211 47.7729Z" fill="#C4573A"/>
<path d="M44.6836 42.3114V48.6886C44.6836 48.8605 44.5957 49 44.4873 49H43.8464L40.6836 43.984V42H44.4873C44.5957 42 44.6836 42.1395 44.6836 42.3114Z" fill="url(#paint1_linear_5881_73301)"/>
<path d="M42.3103 46.9194H41.4218C41.3971 46.9194 41.377 46.8993 41.377 46.8745V46.6113C41.377 46.5865 41.397 46.5664 41.4218 46.5664H42.3103C42.3351 46.5664 42.3552 46.5865 42.3552 46.6113V46.8745C42.3552 46.8993 42.3351 46.9194 42.3103 46.9194Z" fill="#C4573A"/>
<path d="M43.4397 47.6015H41.4218C41.3971 47.6015 41.377 47.5814 41.377 47.5566V47.2934C41.377 47.2686 41.397 47.2485 41.4218 47.2485H43.4397C43.4645 47.2485 43.4846 47.2686 43.4846 47.2934V47.5566C43.4846 47.5814 43.4645 47.6015 43.4397 47.6015Z" fill="#C4573A"/>
<path d="M42.8279 48.2841H41.4218C41.3971 48.2841 41.377 48.264 41.377 48.2392V47.976C41.377 47.9512 41.397 47.9312 41.4218 47.9312H42.8279C42.8527 47.9312 42.8728 47.9512 42.8728 47.976V48.2392C42.8728 48.264 42.8527 48.2841 42.8279 48.2841Z" fill="#C4573A"/>
</g>
</g>
<defs>
<linearGradient id="paint0_linear_5881_73301" x1="35.7947" y1="41.8946" x2="39.5605" y2="49.4749" gradientUnits="userSpaceOnUse">
<stop offset="0.0871941" stop-color="#FFD14A"/>
<stop offset="1" stop-color="#FF9518"/>
</linearGradient>
<linearGradient id="paint1_linear_5881_73301" x1="44.3299" y1="45.6484" x2="37.5946" y2="42.6311" gradientUnits="userSpaceOnUse">
<stop stop-color="#FE860A" stop-opacity="0"/>
<stop offset="1" stop-color="#FE7701"/>
</linearGradient>
<clipPath id="clip0_5881_73301">
<rect width="48" height="48" fill="white" transform="translate(8 8)"/>
</clipPath>
<clipPath id="clip1_5881_73301">
<rect width="12" height="12" fill="white" transform="translate(33.9336 37)"/>
</clipPath>
<clipPath id="clip2_5881_73301">
<rect width="7.38889" height="7.38889" fill="white" transform="translate(36.2676 37.0557)"/>
</clipPath>
</defs>
</svg>
