<svg width="48" height="48" viewBox="0 0 48 48" fill="none" xmlns="http://www.w3.org/2000/svg">
<path d="M14.5385 7.15381C15.9406 7.15381 17.0769 8.29012 17.0769 9.69227C17.0769 11.0944 15.9406 12.2307 14.5385 12.2307C13.1372 12.2307 12 11.0944 12 9.69227C12 8.29012 13.1372 7.15381 14.5385 7.15381Z" fill="#07CC66"/>
<path d="M9.69321 25.1538C10.4584 25.1538 11.0778 25.7741 11.0778 26.5384C11.0778 27.3027 10.4584 27.923 9.69321 27.923C8.9289 27.923 8.30859 27.3027 8.30859 26.5384C8.30859 25.7741 8.9289 25.1538 9.69321 25.1538Z" fill="#07CC66"/>
<path d="M31.3698 28.8302V27.0154C31.3698 26.4967 30.9489 26.0767 30.431 26.0767H19.8313C19.3126 26.0767 18.8926 26.4967 18.8926 27.0154V28.8302C18.8926 29.349 19.3126 29.769 19.8313 29.769C19.3126 29.769 18.8926 30.189 18.8926 30.7077V32.5225C18.8926 33.0413 19.3126 33.4613 19.8313 33.4613C19.3126 33.4613 18.8926 33.8813 18.8926 34.4V36.2148C18.8926 36.7336 19.3126 37.1536 19.8313 37.1536C19.3126 37.1536 18.8926 37.5736 18.8926 38.0924V39.9071C18.8926 40.4259 19.3126 40.8459 19.8313 40.8459C19.3126 40.8459 18.8926 41.2659 18.8926 41.7847V43.5994C18.8926 44.1182 19.3126 44.5382 19.8313 44.5382H30.431C30.9489 44.5382 31.3698 44.1182 31.3698 43.5994V41.7847C31.3698 41.2659 30.9489 40.8459 30.431 40.8459C30.9489 40.8459 31.3698 40.4259 31.3698 39.9071V38.0924C31.3698 37.5736 30.9489 37.1536 30.431 37.1536C30.9489 37.1536 31.3698 36.7336 31.3698 36.2148V34.4C31.3698 33.8813 30.9489 33.4613 30.431 33.4613C30.9489 33.4613 31.3698 33.0413 31.3698 32.5225V30.7077C31.3698 30.189 30.9489 29.769 30.431 29.769C30.9489 29.769 31.3698 29.349 31.3698 28.8302Z" fill="#FD6814"/>
<path d="M31.3698 38.0926V39.9073C31.3698 40.4261 30.9489 40.8461 30.431 40.8461H19.8313C19.3126 40.8461 18.8926 40.4261 18.8926 39.9073V38.0926C18.8926 37.5738 19.3126 37.1538 19.8313 37.1538H30.431C30.9489 37.1538 31.3698 37.5738 31.3698 38.0926Z" fill="#F04500"/>
<path d="M31.3698 30.7078V32.5226C31.3698 33.0413 30.9489 33.4614 30.431 33.4614H19.8313C19.3126 33.4614 18.8926 33.0413 18.8926 32.5226V30.7078C18.8926 30.189 19.3126 29.769 19.8313 29.769H30.431C30.9489 29.769 31.3698 30.189 31.3698 30.7078Z" fill="#F04500"/>
<path d="M43.8474 21.4459V19.6312C43.8474 19.1124 43.4274 18.6924 42.9096 18.6924H32.3089C31.7911 18.6924 31.3711 19.1124 31.3711 19.6312V21.4459C31.3711 21.9647 31.7911 22.3847 32.3089 22.3847C31.7911 22.3847 31.3711 22.8047 31.3711 23.3235V25.1382C31.3711 25.657 31.7911 26.077 32.3089 26.077C31.7911 26.077 31.3711 26.497 31.3711 27.0158V28.8305C31.3711 29.3493 31.7911 29.7693 32.3089 29.7693C31.7911 29.7693 31.3711 30.1893 31.3711 30.7081V32.5228C31.3711 33.0416 31.7911 33.4616 32.3089 33.4616C31.7911 33.4616 31.3711 33.8816 31.3711 34.4004V36.2152C31.3711 36.7339 31.7911 37.1539 32.3089 37.1539C31.7911 37.1539 31.3711 37.5739 31.3711 38.0927V39.9075C31.3711 40.4262 31.7911 40.8462 32.3089 40.8462C31.7911 40.8462 31.3711 41.2662 31.3711 41.785V43.5998C31.3711 44.1185 31.7911 44.5385 32.3089 44.5385H42.9096C43.4274 44.5385 43.8474 44.1185 43.8474 43.5998V41.785C43.8474 41.2662 43.4274 40.8462 42.9096 40.8462C43.4274 40.8462 43.8474 40.4262 43.8474 39.9075V38.0927C43.8474 37.5739 43.4274 37.1539 42.9096 37.1539C43.4274 37.1539 43.8474 36.7339 43.8474 36.2152V34.4004C43.8474 33.8816 43.4274 33.4616 42.9096 33.4616C43.4274 33.4616 43.8474 33.0416 43.8474 32.5228V30.7081C43.8474 30.1893 43.4274 29.7693 42.9096 29.7693C43.4274 29.7693 43.8474 29.3493 43.8474 28.8305V27.0158C43.8474 26.497 43.4274 26.077 42.9096 26.077C43.4274 26.077 43.8474 25.657 43.8474 25.1382V23.3235C43.8474 22.8047 43.4274 22.3847 42.9096 22.3847C43.4274 22.3847 43.8474 21.9647 43.8474 21.4459Z" fill="#FFD400"/>
<path d="M43.8474 38.0926V39.9073C43.8474 40.4261 43.4274 40.8461 42.9096 40.8461H32.3089C31.7911 40.8461 31.3711 40.4261 31.3711 39.9073V38.0926C31.3711 37.5738 31.7911 37.1538 32.3089 37.1538H42.9096C43.4274 37.1538 43.8474 37.5738 43.8474 38.0926Z" fill="#FDB811"/>
<path d="M43.8474 30.7078V32.5226C43.8474 33.0413 43.4274 33.4614 42.9096 33.4614H32.3089C31.7911 33.4614 31.3711 33.0413 31.3711 32.5226V30.7078C31.3711 30.189 31.7911 29.769 32.3089 29.769H42.9096C43.4274 29.769 43.8474 30.189 43.8474 30.7078Z" fill="#FDB811"/>
<path d="M43.8474 23.323V25.1378C43.8474 25.6566 43.4274 26.0766 42.9096 26.0766H32.3089C31.7911 26.0766 31.3711 25.6566 31.3711 25.1378V23.323C31.3711 22.8043 31.7911 22.3843 32.3089 22.3843H42.9096C43.4274 22.3843 43.8474 22.8043 43.8474 23.323Z" fill="#FDB811"/>
<path d="M18.8932 36.215V34.4002C18.8932 33.8814 18.4732 33.4614 17.9545 33.4614H7.35478C6.83703 33.4614 6.41602 33.8814 6.41602 34.4002V36.215C6.41602 36.7337 6.83703 37.1537 7.35478 37.1537C6.83703 37.1537 6.41602 37.5737 6.41602 38.0925V39.9073C6.41602 40.426 6.83703 40.846 7.35478 40.846C6.83703 40.846 6.41602 41.266 6.41602 41.7848V43.5996C6.41602 44.1183 6.83703 44.5383 7.35478 44.5383H17.9545C18.4732 44.5383 18.8932 44.1183 18.8932 43.5996V41.7848C18.8932 41.266 18.4732 40.846 17.9545 40.846C18.4732 40.846 18.8932 40.426 18.8932 39.9073V38.0925C18.8932 37.5737 18.4732 37.1537 17.9545 37.1537C18.4732 37.1537 18.8932 36.7337 18.8932 36.215Z" fill="#FFD400"/>
<path d="M18.8932 38.0926V39.9073C18.8932 40.4261 18.4732 40.8461 17.9545 40.8461H7.35478C6.83703 40.8461 6.41602 40.4261 6.41602 39.9073V38.0926C6.41602 37.5738 6.83703 37.1538 7.35478 37.1538H17.9545C18.4732 37.1538 18.8932 37.5738 18.8932 38.0926Z" fill="#FFD400"/>
<path d="M41.7704 13.6152C42.1535 13.6152 42.4627 13.9254 42.4627 14.3075C42.4627 14.6897 42.1535 14.9998 41.7704 14.9998C41.3883 14.9998 41.0781 14.6897 41.0781 14.3075C41.0781 13.9254 41.3883 13.6152 41.7704 13.6152Z" fill="#FD6814"/>
<path d="M35.7704 3.46143C36.1535 3.46143 36.4627 3.77158 36.4627 4.15373C36.4627 4.53589 36.1535 4.84604 35.7704 4.84604C35.3883 4.84604 35.0781 4.53589 35.0781 4.15373C35.0781 3.77158 35.3883 3.46143 35.7704 3.46143Z" fill="#FD6814"/>
<path d="M29.3095 11.3076C29.6926 11.3076 30.0018 11.6178 30.0018 11.9999C30.0018 12.3821 29.6926 12.6922 29.3095 12.6922C28.9273 12.6922 28.6172 12.3821 28.6172 11.9999C28.6172 11.6178 28.9273 11.3076 29.3095 11.3076Z" fill="#FD6814"/>
<path d="M20.54 8.53857C20.923 8.53857 21.2323 8.84873 21.2323 9.23088C21.2323 9.61304 20.923 9.92319 20.54 9.92319C20.1578 9.92319 19.8477 9.61304 19.8477 9.23088C19.8477 8.84873 20.1578 8.53857 20.54 8.53857Z" fill="#FD6814"/>
<path d="M16.8466 21C17.2297 21 17.5389 21.3102 17.5389 21.6923C17.5389 22.0745 17.2297 22.3846 16.8466 22.3846C16.4645 22.3846 16.1543 22.0745 16.1543 21.6923C16.1543 21.3102 16.4645 21 16.8466 21Z" fill="#FD6814"/>
<path d="M7.1552 13.1538C7.53828 13.1538 7.84751 13.464 7.84751 13.8461C7.84751 14.2283 7.53828 14.5384 7.1552 14.5384C6.77304 14.5384 6.46289 14.2283 6.46289 13.8461C6.46289 13.464 6.77304 13.1538 7.1552 13.1538Z" fill="#FD6814"/>
<path d="M4.61633 24.6925C4.45775 24.6925 4.30341 24.6107 4.21766 24.464C4.0888 24.244 4.16273 23.9613 4.3828 23.8326L23.3059 12.7557C23.4528 12.6696 23.635 12.6715 23.7802 12.7605C23.9254 12.8494 24.0097 13.0111 23.9998 13.181L23.5937 20.0851L37.5852 10.466C37.7951 10.3217 38.0827 10.3748 38.2269 10.5849C38.3713 10.7949 38.3181 11.0822 38.1081 11.2267L23.3389 21.3805C23.1937 21.4804 23.0042 21.4888 22.8507 21.4022C22.6971 21.3156 22.6064 21.1491 22.6167 20.9732L23.0276 13.9882L4.84904 24.6291C4.77575 24.672 4.69553 24.6925 4.61633 24.6925Z" fill="#3F4751"/>
<path d="M36.9242 13.6152C36.8671 13.6152 36.8091 13.6046 36.753 13.5821C36.5163 13.4874 36.4011 13.2188 36.4958 12.9821L37.1658 11.3074H35.5397C35.2848 11.3074 35.0781 11.1007 35.0781 10.8458C35.0781 10.591 35.2848 10.3843 35.5397 10.3843H37.8474C38.0005 10.3843 38.1437 10.4602 38.2296 10.5871C38.3154 10.7139 38.3328 10.8751 38.2759 11.0172L37.3529 13.3249C37.2806 13.5055 37.1073 13.6152 36.9242 13.6152Z" fill="#33383F"/>
</svg>
