<svg width="48" height="48" viewBox="0 0 48 48" fill="none" xmlns="http://www.w3.org/2000/svg">
<path d="M19.1603 15.6925C18.9054 15.6925 18.6988 15.4858 18.6988 15.231V14.7694C18.6988 13.5864 18.2517 12.4614 17.4401 11.6017C16.5585 10.6682 15.3664 10.154 14.0834 10.154C12.8515 10.154 11.6925 10.6342 10.8198 11.5061C9.94818 12.3777 9.468 13.5367 9.468 14.7694V15.231C9.468 15.4858 9.26141 15.6925 9.00646 15.6925C8.7516 15.6925 8.54492 15.4858 8.54492 15.231V14.7694C8.54492 13.2902 9.12101 11.8993 10.1671 10.8532C11.2145 9.80705 12.6052 9.23096 14.0834 9.23096C15.623 9.23096 17.0534 9.84785 18.1113 10.9679C19.0854 11.9997 19.6218 13.3497 19.6218 14.7694V15.231C19.6218 15.4858 19.4153 15.6925 19.1603 15.6925Z" fill="#3F4751"/>
<path d="M31.1601 15.231V15.231C29.7796 15.231 16.4859 15.231 11.7755 15.231C11.7755 16.9041 11.7754 42.6307 11.7754 44.3078H11.7755V44.308C12.6851 44.308 29.0947 44.3078 31.1601 44.3078C31.1601 42.6347 31.1601 16.908 31.1601 15.231Z" fill="#FC974D"/>
<path d="M44.971 19.8795C44.6922 16.8334 41.9967 14.5894 38.9506 14.8681C35.9044 15.146 33.6614 17.8414 33.9393 20.8875C34.1736 23.4472 36.115 25.4411 38.5361 25.8463H38.5435C39.0014 25.9229 39.4758 25.9432 39.9595 25.899C43.0057 25.6201 45.2488 22.9257 44.971 19.8795Z" fill="#FFD400"/>
<path d="M40.6181 23.8849C40.2701 23.5951 40.222 23.0781 40.5119 22.7301C40.8018 22.3812 41.3196 22.3341 41.6676 22.624C42.0166 22.9138 42.0637 23.4317 41.7738 23.7797C41.4837 24.1277 40.966 24.1757 40.6181 23.8849Z" fill="#232B3F"/>
<path d="M42.3013 18.1035C42.3013 18.2881 42.2385 18.4746 42.111 18.6278L38.3356 23.1638C38.0457 23.5118 37.528 23.5589 37.18 23.2691C36.832 22.9792 36.785 22.4614 37.0746 22.1134L40.85 17.5783C41.14 17.2294 41.6577 17.1823 42.0057 17.4721C42.2007 17.6346 42.3013 17.8681 42.3013 18.1035Z" fill="#232B3F"/>
<path d="M38.5683 16.8804C38.9163 17.1703 38.9643 17.6881 38.6744 18.0361C38.3836 18.3841 37.8667 18.4312 37.5187 18.1413C37.1699 17.8515 37.1226 17.3346 37.4126 16.9856C37.7025 16.6376 38.2203 16.5906 38.5683 16.8804Z" fill="#232B3F"/>
<path d="M42.6991 31.8462C43.4644 31.8462 44.0837 32.4665 44.0837 33.2308C44.0837 33.9951 43.4644 34.6154 42.6991 34.6154C41.9349 34.6154 41.3145 33.9951 41.3145 33.2308C41.3145 32.4665 41.9348 31.8462 42.6991 31.8462Z" fill="#FD6814"/>
<path d="M33.2371 4.61523C34.3845 4.61523 35.314 5.54477 35.314 6.69216C35.314 7.83954 34.3845 8.76908 33.2371 8.76908C32.0906 8.76908 31.1602 7.83954 31.1602 6.69216C31.1602 5.54477 32.0906 4.61523 33.2371 4.61523Z" fill="#FD6814"/>
<path d="M5.77509 6.92334C7.30463 6.92334 8.54432 8.16303 8.54432 9.69257C8.54432 11.2221 7.30463 12.4618 5.77509 12.4618C4.24647 12.4618 3.00586 11.2221 3.00586 9.69257C3.00586 8.16303 4.24657 6.92334 5.77509 6.92334Z" fill="#FD6814"/>
<path d="M9.09781 15.231H4.48242V44.3079H11.867V42.0002V15.231H9.09781Z" fill="#F47F31"/>
<path d="M11.867 44.3075H4.48242L8.17473 40.6152L11.867 44.3075Z" fill="#DD621D"/>
<path d="M38.5452 42V44.3077H23.3145V25.8462H31.1606H38.5378C38.5407 25.8471 38.5435 25.8471 38.5452 25.8471V42Z" fill="#F47F31"/>
<path d="M41.5439 39.6924C41.9269 39.6924 42.2362 40.0025 42.2362 40.3847C42.2362 40.7668 41.9269 41.077 41.5439 41.077C41.1618 41.077 40.8516 40.7668 40.8516 40.3847C40.8516 40.0025 41.1618 39.6924 41.5439 39.6924Z" fill="#4A78FF"/>
<path d="M41.081 9.69238C41.4641 9.69238 41.7733 10.0025 41.7733 10.3847C41.7733 10.7668 41.4641 11.077 41.081 11.077C40.6989 11.077 40.3887 10.7668 40.3887 10.3847C40.3887 10.0025 40.6989 9.69238 41.081 9.69238Z" fill="#4A78FF"/>
<path d="M28.62 3.69238C29.0031 3.69238 29.3123 4.00254 29.3123 4.38469C29.3123 4.76684 29.0031 5.077 28.62 5.077C28.238 5.077 27.9277 4.76684 27.9277 4.38469C27.9277 4.00254 28.238 3.69238 28.62 3.69238Z" fill="#4A78FF"/>
<path d="M18.4657 5.53857C18.8488 5.53857 19.1581 5.84873 19.1581 6.23088C19.1581 6.61304 18.8488 6.92319 18.4657 6.92319C18.0836 6.92319 17.7734 6.61304 17.7734 6.23088C17.7734 5.84873 18.0836 5.53857 18.4657 5.53857Z" fill="#4A78FF"/>
<path d="M7.38957 3.69238C7.77265 3.69238 8.08188 4.00254 8.08188 4.38469C8.08188 4.76684 7.77265 5.077 7.38957 5.077C7.00742 5.077 6.69727 4.76684 6.69727 4.38469C6.69727 4.00254 7.00742 3.69238 7.38957 3.69238Z" fill="#4A78FF"/>
<path d="M26.5451 19.3848C26.2903 19.3848 26.0835 19.1781 26.0835 18.9233V14.7694C26.0835 13.5359 25.6036 12.3769 24.7319 11.5061C23.8598 10.6341 22.7009 10.154 21.4681 10.154C20.1853 10.154 18.9931 10.6682 18.1115 11.6017C17.2998 12.4614 16.8528 13.5863 16.8528 14.7694V18.9233C16.8528 19.1781 16.6462 19.3848 16.3912 19.3848C16.1364 19.3848 15.9297 19.1781 15.9297 18.9233V14.7694C15.9297 13.3497 16.4662 11.9996 17.4402 10.9679C18.4981 9.84785 19.9285 9.23096 21.4681 9.23096C22.9474 9.23096 24.3383 9.80705 25.3843 10.8532C26.4303 11.8983 27.0065 13.2891 27.0065 14.7694V18.9233C27.0066 19.1781 26.7999 19.3848 26.5451 19.3848Z" fill="#3F4751"/>
<path d="M8.17443 42.0003C7.91957 42.0003 7.71289 41.7937 7.71289 41.5388V27.2311C7.71289 26.9761 7.91957 26.7695 8.17443 26.7695C8.42938 26.7695 8.63597 26.9761 8.63597 27.2311V41.5388C8.63597 41.7937 8.42938 42.0003 8.17443 42.0003Z" fill="#DD621D"/>
<path d="M17.3136 19.3845H15.4674C15.2125 19.3845 15.0059 19.1778 15.0059 18.923C15.0059 18.6681 15.2125 18.4614 15.4674 18.4614H17.3136C17.5685 18.4614 17.7751 18.6681 17.7751 18.923C17.7751 19.1778 17.5685 19.3845 17.3136 19.3845Z" fill="#33383F"/>
<path d="M27.4678 19.3845H25.6217C25.3669 19.3845 25.1602 19.1778 25.1602 18.923C25.1602 18.6681 25.3669 18.4614 25.6217 18.4614H27.4678C27.7228 18.4614 27.9294 18.6681 27.9294 18.923C27.9294 19.1778 27.7227 19.3845 27.4678 19.3845Z" fill="#33383F"/>
<path d="M30.9283 34.1539C30.0038 34.1539 29.1346 33.7939 28.4807 33.14C27.827 32.4861 27.4668 31.6168 27.4668 30.6924V28.1539C27.4668 27.899 27.6736 27.6924 27.9283 27.6924C28.1833 27.6924 28.3899 27.899 28.3899 28.1539V30.6924C28.3899 31.3703 28.654 32.0078 29.1336 32.4873C29.613 32.9668 30.2505 33.2308 30.9283 33.2308C32.3281 33.2308 33.4668 32.092 33.4668 30.6924V28.1539C33.4668 27.899 33.6736 27.6924 33.9283 27.6924C34.1833 27.6924 34.3899 27.899 34.3899 28.1539V30.6924C34.3899 32.6011 32.837 34.1539 30.9283 34.1539Z" fill="#545B66"/>
<path d="M34.3905 28.6155H33.4674C33.2126 28.6155 33.0059 28.4089 33.0059 28.1539C33.0059 27.899 33.2126 27.6924 33.4674 27.6924H34.3905C34.6454 27.6924 34.852 27.899 34.852 28.1539C34.852 28.4089 34.6453 28.6155 34.3905 28.6155Z" fill="#33383F"/>
<path d="M28.3905 28.6155H27.4674C27.2126 28.6155 27.0059 28.4089 27.0059 28.1539C27.0059 27.899 27.2126 27.6924 27.4674 27.6924H28.3905C28.6454 27.6924 28.852 27.899 28.852 28.1539C28.852 28.4089 28.6453 28.6155 28.3905 28.6155Z" fill="#33383F"/>
<path d="M18.2375 42.4617H11.776C11.5211 42.4617 11.3145 42.2551 11.3145 42.0001C11.3145 41.7452 11.5211 41.5386 11.776 41.5386H18.2375C18.4925 41.5386 18.6991 41.7452 18.6991 42.0001C18.6991 42.2551 18.4925 42.4617 18.2375 42.4617Z" fill="#F47F31"/>
</svg>
