<svg width="48" height="48" viewBox="0 0 48 48" fill="none" xmlns="http://www.w3.org/2000/svg">
<path d="M9.53711 7.20996H34.3291V39.826H9.53711V7.20996Z" fill="#F7F7F7"/>
<path d="M12.4844 16.4453H31.3772V17.4341H12.4844V16.4453Z" fill="#E5E5E5"/>
<path d="M12.4844 18.4951H31.3772V19.4839H12.4844V18.4951Z" fill="#E5E5E5"/>
<path d="M12.4844 20.54H27.8396V21.5288H12.4844V20.54Z" fill="#E5E5E5"/>
<path d="M12.4844 24.3271H31.3772V25.3159H12.4844V24.3271Z" fill="#E5E5E5"/>
<path d="M12.4844 26.3721H31.3772V27.3609H12.4844V26.3721Z" fill="#E5E5E5"/>
<path d="M12.4844 28.4219H27.8396V29.4107H12.4844V28.4219Z" fill="#E5E5E5"/>
<path d="M12.4844 32.209H31.3772V33.1978H12.4844V32.209Z" fill="#E5E5E5"/>
<path d="M12.4844 34.2539H31.3772V35.2427H12.4844V34.2539Z" fill="#E5E5E5"/>
<path d="M12.4844 36.3037H27.8396V37.2925H12.4844V36.3037Z" fill="#E5E5E5"/>
<path d="M35.4473 39.8311C39.7286 39.8311 43.1993 36.3605 43.1993 32.0791C43.1993 27.7978 39.7286 24.3271 35.4473 24.3271C31.166 24.3271 27.6953 27.7978 27.6953 32.0791C27.6953 36.3605 31.166 39.8311 35.4473 39.8311Z" fill="#F7C680"/>
<path d="M35.4432 25.6133C31.8768 25.6133 28.9824 28.5077 28.9824 32.0741C28.9824 35.6453 31.8768 38.5397 35.4432 38.5397C39.0144 38.5397 41.9088 35.6453 41.9088 32.0741C41.9088 28.5077 39.0192 25.6133 35.4432 25.6133ZM35.4432 37.8725C32.2464 37.8725 29.6496 35.2805 29.6496 32.0741C29.6496 28.8773 32.2416 26.2757 35.4432 26.2757C38.6448 26.2757 41.2416 28.8725 41.2416 32.0741C41.2416 35.2805 38.6496 37.8725 35.4432 37.8725Z" fill="#F6B460"/>
<path d="M37.2824 32.9667C37.2824 33.7299 36.6968 34.1811 35.8904 34.2771V35.2131H35.1368V34.2627C34.5656 34.1811 34.0184 33.9363 33.6152 33.5955L34.0136 32.7843C34.4648 33.1875 35.108 33.4467 35.5736 33.4467C35.9816 33.4467 36.2264 33.2979 36.2264 33.0243C36.2264 32.1939 33.8792 32.6787 33.8792 31.1187C33.8792 30.4467 34.3688 29.9811 35.1368 29.8563V28.9443H35.8904V29.8323C36.3992 29.8851 36.8888 30.0579 37.2536 30.2979L36.8696 31.1235C36.404 30.8451 35.852 30.6723 35.4968 30.6723C35.1656 30.6723 34.9352 30.7923 34.9352 31.0323C34.94 31.8339 37.2872 31.3827 37.2824 32.9667Z" fill="#F6B460"/>
<path d="M5.09198 31.3729L19.996 20.7553C20.3128 20.5297 20.7496 20.6017 20.9752 20.9185L26.7784 29.0593C27.004 29.3761 26.932 29.8129 26.6152 30.0385L11.7112 40.6609C11.3992 40.8865 10.9576 40.8145 10.732 40.4977L4.92878 32.3521C4.70318 32.0353 4.77998 31.5985 5.09198 31.3729Z" fill="#61BE7A"/>
<path d="M19.1846 22.498L7.00698 31.1764C7.46298 31.8148 7.31418 32.7076 6.67578 33.1636L10.535 38.5828C11.1734 38.1268 12.0662 38.2756 12.5222 38.914L24.6998 30.2356C24.2438 29.5972 24.3926 28.7044 25.031 28.2484L21.1718 22.8292C20.5286 23.29 19.6406 23.1412 19.1846 22.498ZM24.407 28.186C23.9654 28.714 23.8406 29.4484 24.0854 30.0916L12.5846 38.2852C12.0566 37.8436 11.3222 37.7188 10.679 37.9636L7.29978 33.2212C7.74138 32.6932 7.86618 31.9588 7.62138 31.3156L19.1222 23.122C19.6502 23.5636 20.3846 23.6884 21.0278 23.4436L24.407 28.186Z" fill="#F7F7F7"/>
<path d="M18.418 34.3216C19.7278 33.3883 19.6342 31.0101 18.2089 29.0098C16.7836 27.0094 14.5663 26.1444 13.2564 27.0777C11.9466 28.011 12.0402 30.3892 13.4655 32.3896C14.8909 34.3899 17.1081 35.2549 18.418 34.3216Z" fill="#F7F7F7"/>
<path d="M10.6258 35.1792C11.0393 35.1792 11.3746 34.844 11.3746 34.4304C11.3746 34.0169 11.0393 33.6816 10.6258 33.6816C10.2122 33.6816 9.87695 34.0169 9.87695 34.4304C9.87695 34.844 10.2122 35.1792 10.6258 35.1792Z" fill="#F7F7F7"/>
<path d="M21.0808 27.73C21.4944 27.73 21.8296 27.3948 21.8296 26.9812C21.8296 26.5677 21.4944 26.2324 21.0808 26.2324C20.6673 26.2324 20.332 26.5677 20.332 26.9812C20.332 27.3948 20.6673 27.73 21.0808 27.73Z" fill="#F7F7F7"/>
<path d="M17.2254 30.4757C17.5278 30.8981 17.379 31.3829 16.971 31.7525L17.3406 32.2709L16.923 32.5684L16.5486 32.0405C16.1982 32.2229 15.795 32.2997 15.4398 32.2709L15.339 31.6612C15.7518 31.7044 16.2078 31.5941 16.467 31.4117C16.6926 31.2485 16.7694 31.0709 16.6638 30.9173C16.3374 30.4565 15.2238 31.6516 14.6046 30.7877C14.3406 30.4133 14.427 29.9621 14.8014 29.5877L14.4414 29.0789L14.859 28.7812L15.2094 29.2805C15.5118 29.1077 15.8526 29.0117 16.1502 28.9973L16.2654 29.6069C15.8958 29.6357 15.5214 29.7605 15.3246 29.8997C15.1374 30.0293 15.0606 30.1876 15.1566 30.322C15.4782 30.7732 16.6014 29.5925 17.2254 30.4757Z" fill="#61BE7A"/>
<path d="M6.5137 30.5668L22.7857 22.2004C23.1313 22.0228 23.5537 22.1572 23.7313 22.5028L28.3009 31.3924C28.4785 31.738 28.3441 32.1604 27.9985 32.338L11.7265 40.7044C11.3857 40.882 10.9585 40.7476 10.7809 40.402L6.2113 31.5124C6.0289 31.1668 6.1681 30.7444 6.5137 30.5668Z" fill="#61BE7A"/>
<path d="M21.7288 23.8086L8.43276 30.6438C8.79276 31.3446 8.51436 32.2038 7.81836 32.5638L10.8616 38.4822C11.5624 38.1222 12.4216 38.4006 12.7816 39.0966L26.0776 32.2614C25.7176 31.5606 25.9912 30.7014 26.692 30.3414L23.6488 24.423C22.948 24.783 22.0888 24.5094 21.7288 23.8086ZM26.0776 30.1878C25.564 30.6486 25.3384 31.3542 25.4872 32.0262L12.9304 38.487C12.4696 37.9734 11.764 37.7478 11.092 37.8966L8.42796 32.7174C8.94156 32.2566 9.16716 31.551 9.01836 30.879L21.5752 24.423C22.036 24.9366 22.7416 25.1622 23.4136 25.0134L26.0776 30.1878Z" fill="#F7F7F7"/>
<path d="M19.2743 35.4051C20.7048 34.6697 20.9541 32.3025 19.831 30.1179C18.708 27.9332 16.6379 26.7583 15.2074 27.4937C13.7769 28.2291 13.5276 30.5962 14.6507 32.7809C15.7737 34.9656 17.8438 36.1404 19.2743 35.4051Z" fill="#F7F7F7"/>
<path d="M11.5437 35.1363C11.9573 35.1363 12.2925 34.801 12.2925 34.3875C12.2925 33.9739 11.9573 33.6387 11.5437 33.6387C11.1302 33.6387 10.7949 33.9739 10.7949 34.3875C10.7949 34.801 11.1302 35.1363 11.5437 35.1363Z" fill="#F7F7F7"/>
<path d="M22.9636 29.2662C23.3772 29.2662 23.7124 28.9309 23.7124 28.5174C23.7124 28.1038 23.3772 27.7686 22.9636 27.7686C22.5501 27.7686 22.2148 28.1038 22.2148 28.5174C22.2148 28.9309 22.5501 29.2662 22.9636 29.2662Z" fill="#F7F7F7"/>
<path d="M18.649 31.4214C18.8842 31.8822 18.673 32.3382 18.2122 32.6502L18.505 33.2166L18.049 33.4518L17.7514 32.8758C17.377 33.0054 16.969 33.0246 16.6186 32.9478L16.6042 32.3334C17.0026 32.4342 17.473 32.391 17.7562 32.247C18.0058 32.1174 18.1066 31.9494 18.0202 31.7862C17.761 31.2822 16.489 32.3094 16.0042 31.3638C15.793 30.9558 15.9466 30.519 16.3738 30.2022L16.0906 29.6502L16.5466 29.415L16.825 29.9526C17.1514 29.823 17.5018 29.7798 17.7994 29.8086L17.8234 30.4278C17.4538 30.4038 17.065 30.471 16.849 30.5814C16.6474 30.687 16.5466 30.8262 16.6234 30.975C16.873 31.4646 18.1546 30.4566 18.649 31.4214Z" fill="#61BE7A"/>
</svg>
